<?xml version="1.0" standalone="no"?>
<!DOCTYPE svg PUBLIC "-//W3C//DTD SVG 20010904//EN"
 "http://www.w3.org/TR/2001/REC-SVG-20010904/DTD/svg10.dtd">
<svg version="1.0" xmlns="http://www.w3.org/2000/svg"
 width="800.000000pt" height="864.000000pt" viewBox="0 0 800.000000 864.000000"
 preserveAspectRatio="xMidYMid meet">

<g transform="translate(0.000000,864.000000) scale(0.100000,-0.100000)"
fill="#000000" stroke="none">
<path d="M3962 8148 c7 -20 45 -21 70 -4 22 15 21 16 -26 16 -34 0 -46 -4 -44
-12z"/>
<path d="M3798 8140 c35 -4 78 -4 95 0 20 4 -4 7 -63 7 -90 0 -92 0 -32 -7z"/>
<path d="M4106 8140 c17 -4 62 -4 100 0 67 7 66 7 -31 7 -59 0 -87 -3 -69 -7z"/>
<path d="M3632 8132 c-19 -12 69 -36 98 -27 12 4 20 3 17 -1 -3 -5 36 -10 86
-10 70 -1 81 0 47 6 l-45 7 54 1 c86 3 55 10 -64 16 -61 4 -126 8 -145 11 -19
3 -41 1 -48 -3z m68 -12 c20 -6 21 -8 5 -8 -11 0 -29 3 -40 8 -25 11 1 11 35
0z"/>
<path d="M4319 8136 c-2 -3 -56 -7 -118 -10 -116 -6 -160 -15 -80 -17 37 -1
40 -2 19 -9 -54 -17 33 -10 111 9 42 10 89 17 105 14 23 -4 26 -2 14 6 -15 11
-43 15 -51 7z"/>
<path d="M3555 8120 c-4 -6 3 -10 14 -10 25 0 27 6 6 13 -8 4 -17 2 -20 -3z"/>
<path d="M4405 8115 c-22 -7 -31 -13 -21 -14 11 -1 16 -4 13 -8 -4 -3 -32 0
-62 7 -43 10 -58 11 -68 1 -9 -9 -3 -10 23 -5 22 3 30 2 22 -3 -8 -6 18 -10
70 -11 90 -1 122 4 113 19 -7 10 10 11 43 2 18 -4 20 -8 10 -14 -9 -6 -9 -9
-1 -9 6 0 15 5 18 10 9 14 -44 32 -73 25 -13 -3 -29 -2 -35 3 -8 6 -27 5 -52
-3z m50 -15 c7 -12 -2 -12 -30 0 -19 8 -19 9 2 9 12 1 25 -3 28 -9z"/>
<path d="M3435 8110 l-40 -7 35 -2 c19 -1 44 -3 55 -5 11 -2 14 -1 6 1 -12 4
-12 6 0 14 17 10 7 10 -56 -1z"/>
<path d="M3520 8099 c0 -5 5 -7 10 -4 6 3 10 8 10 11 0 2 -4 4 -10 4 -5 0 -10
-5 -10 -11z"/>
<path d="M3585 8100 c-17 -6 -15 -9 16 -15 20 -4 47 -5 60 -2 14 2 6 5 -21 6
-35 2 -41 4 -25 11 26 11 -3 12 -30 0z"/>
<path d="M4061 8094 c0 -11 3 -14 6 -6 3 7 2 16 -1 19 -3 4 -6 -2 -5 -13z"/>
<path d="M3355 8090 c3 -5 21 -10 38 -9 31 1 31 1 7 9 -36 11 -52 11 -45 0z"/>
<path d="M4605 8091 l-30 -7 25 -7 c16 -4 30 -1 40 8 15 16 12 16 -35 6z"/>
<path d="M4729 8071 c11 -7 11 -9 0 -14 -8 -3 4 -6 26 -6 l40 0 -34 14 c-37
17 -53 19 -32 6z"/>
<path d="M3220 8060 c-11 -7 -7 -10 18 -10 20 0 31 4 27 10 -8 13 -26 13 -45
0z"/>
<path d="M3440 8045 c0 -22 4 -25 40 -25 36 0 40 3 40 25 0 23 -4 25 -40 25
-36 0 -40 -2 -40 -25z"/>
<path d="M4480 8043 c0 -18 6 -23 24 -23 38 0 56 10 56 31 0 17 -6 19 -40 17
-34 -2 -40 -5 -40 -25z"/>
<path d="M3142 8046 c-25 -6 -40 -15 -35 -20 4 -5 -5 -6 -22 -2 -20 4 -25 3
-16 -3 12 -8 12 -10 0 -14 -8 -2 -3 -2 11 1 14 2 30 5 37 5 7 0 9 5 6 10 -4 6
1 8 11 4 10 -4 23 -7 29 -8 7 0 4 -4 -6 -8 -10 -4 14 -7 55 -7 45 -1 65 2 53
7 -18 7 -18 8 -2 8 40 2 2 21 -41 21 -34 0 -43 3 -32 10 19 12 7 11 -48 -4z
m97 -22 c9 -8 -65 -2 -84 7 -13 6 -4 7 30 3 28 -4 52 -8 54 -10z"/>
<path d="M3691 8041 c-22 -14 1 -20 77 -20 49 0 72 4 72 12 0 14 -128 21 -149
8z"/>
<path d="M4160 8039 c0 -5 -18 -9 -40 -9 -29 0 -40 -4 -40 -15 0 -22 76 -21
84 1 4 10 16 15 33 14 55 -4 113 0 113 8 0 4 -34 8 -75 9 -41 0 -75 -3 -75 -8z"/>
<path d="M4777 8040 c-27 -5 -52 -12 -55 -15 -4 -4 7 -5 23 -2 69 13 120 17
100 8 -11 -5 -36 -10 -55 -10 -71 -2 -56 -16 18 -17 43 -1 66 2 52 5 -21 6
-22 8 -8 13 9 4 31 0 48 -8 16 -9 36 -13 43 -11 6 3 3 6 -8 6 -17 1 -18 3 -5
11 11 8 7 9 -14 4 -19 -5 -27 -3 -23 3 6 9 -42 26 -62 22 -3 -1 -28 -5 -54 -9z"/>
<path d="M3015 8010 c-16 -7 -17 -9 -3 -9 9 -1 20 4 23 9 7 11 7 11 -20 0z"/>
<path d="M3365 8010 c-4 -6 3 -10 14 -10 25 0 27 6 6 13 -8 4 -17 2 -20 -3z"/>
<path d="M2960 7991 c0 -7 -4 -10 -9 -7 -5 3 -26 0 -47 -7 -21 -8 -33 -16 -28
-20 6 -3 23 1 38 9 33 16 36 17 36 5 0 -4 -15 -13 -32 -19 l-33 -11 35 4 c31
5 32 4 13 -6 -12 -7 -30 -8 -40 -4 -10 5 -24 7 -32 6 -8 -1 -10 3 -6 11 3 7 0
5 -8 -5 -9 -10 -24 -18 -34 -17 -32 4 -44 0 -37 -11 4 -8 0 -9 -15 -4 -13 4
-21 2 -21 -5 0 -7 -6 -10 -13 -7 -7 3 -23 -1 -36 -8 -22 -11 -22 -12 -5 -20
48 -19 77 -15 103 14 28 31 99 49 94 24 -2 -7 4 -13 12 -13 8 0 15 4 15 10 0
5 11 12 25 16 14 4 24 11 22 18 -2 6 0 19 5 29 5 10 7 21 4 25 -3 3 -6 0 -6
-7z m-245 -101 c-3 -5 -12 -10 -18 -10 -7 0 -6 4 3 10 19 12 23 12 15 0z m52
-6 c-3 -3 -12 -4 -19 -1 -8 3 -5 6 6 6 11 1 17 -2 13 -5z"/>
<path d="M5020 7984 c0 -8 5 -12 10 -9 10 6 14 -7 11 -32 -1 -6 12 -14 29 -18
16 -4 28 -10 27 -13 -1 -4 8 -18 21 -32 13 -14 22 -18 22 -10 0 7 -7 18 -17
25 -9 7 -13 16 -10 22 11 17 65 2 98 -28 18 -16 37 -29 43 -30 16 -1 40 -6 67
-14 19 -5 21 -4 9 5 -13 9 -12 11 5 8 14 -2 21 -12 23 -34 3 -30 5 -31 60 -37
99 -9 148 -47 61 -47 -26 0 -39 -4 -39 -14 0 -16 43 -30 48 -16 2 6 8 8 13 4
5 -3 9 -1 9 4 0 10 34 22 76 27 17 2 20 -2 18 -20 -2 -22 0 -23 24 -14 26 9
26 9 7 -7 -20 -16 -20 -16 4 -9 18 5 22 4 16 -6 -6 -9 -4 -11 7 -6 9 3 21 0
27 -6 8 -8 11 -8 11 2 0 8 7 11 18 7 15 -5 14 -4 -2 9 -10 8 -23 12 -28 9 -5
-3 -15 2 -22 12 -8 10 -20 15 -29 11 -10 -4 -14 -2 -12 6 3 7 -20 24 -53 40
-43 21 -51 23 -32 8 26 -22 12 -28 -21 -10 -11 5 -17 15 -13 21 5 8 -2 9 -22
4 -28 -7 -28 -7 -9 8 19 15 19 16 1 9 -13 -4 -17 -3 -12 5 5 8 -3 14 -23 18
-17 4 -31 10 -31 15 0 5 -5 9 -11 9 -5 0 -7 -4 -4 -10 9 -15 -21 -12 -34 3 -6
8 -8 17 -4 21 4 4 -5 2 -21 -4 -33 -12 -78 -4 -55 11 8 5 19 9 24 9 6 0 3 -5
-5 -10 -8 -5 -10 -10 -5 -10 6 0 16 4 24 9 11 7 8 11 -10 17 -13 4 -26 8 -29
9 -3 0 -11 4 -18 9 -19 12 -27 -1 -12 -19 9 -11 9 -15 1 -15 -6 0 -14 7 -17
15 -4 8 -14 15 -23 16 -12 0 -12 2 4 9 20 9 7 15 -23 11 -8 -1 -22 5 -31 13
-21 19 -100 48 -112 40 -5 -3 -9 0 -9 5 0 6 -4 11 -10 11 -5 0 -10 -7 -10 -16z
m56 -13 c5 -6 22 -12 38 -15 16 -3 31 -8 35 -12 3 -3 -1 -5 -9 -3 -8 1 -23 -1
-33 -6 -10 -4 -28 -3 -40 4 -19 10 -18 11 13 6 l35 -4 -32 11 c-18 6 -33 15
-33 19 0 12 14 11 26 0z"/>
<path d="M3014 7936 c-6 -26 1 -46 17 -46 12 0 12 57 -1 65 -5 3 -12 -5 -16
-19z"/>
<path d="M4965 7940 c-8 -13 3 -65 12 -57 3 4 7 18 8 32 3 27 -9 42 -20 25z"/>
<path d="M2644 7871 c3 -5 -6 -8 -20 -8 -15 0 -30 -7 -35 -14 -4 -8 -14 -14
-21 -15 -35 -3 -39 -5 -32 -16 5 -8 2 -9 -10 -5 -10 4 -15 3 -11 -3 3 -6 -2
-10 -12 -11 -14 0 -12 -3 6 -10 13 -5 26 -7 29 -4 3 3 -1 5 -9 5 -11 0 -11 2
1 10 8 5 36 10 63 10 26 0 47 5 47 10 0 6 -12 10 -26 10 -15 0 -23 4 -18 11 3
6 15 9 25 6 10 -3 22 -1 25 4 3 5 13 9 22 9 13 0 14 -2 4 -9 -9 -5 -3 -8 17
-7 16 1 27 4 23 7 -12 11 -73 29 -68 20z"/>
<path d="M2850 7871 c0 -13 -49 -20 -53 -8 -2 6 -6 3 -10 -6 -9 -25 48 -23 75
3 19 17 19 20 5 20 -9 0 -17 -4 -17 -9z"/>
<path d="M2957 7864 c-13 -13 -7 -24 14 -24 11 0 19 5 17 12 -5 14 -22 21 -31
12z"/>
<path d="M5200 7861 c0 -5 -8 -12 -17 -14 -14 -4 -12 -5 5 -6 13 -1 22 5 22
14 0 8 -2 15 -5 15 -3 0 -5 -4 -5 -9z"/>
<path d="M2430 7775 c-74 -41 -82 -48 -65 -58 19 -10 38 1 32 18 -7 16 84 -2
95 -19 4 -6 8 -8 8 -4 0 4 14 3 30 -2 26 -7 30 -6 30 11 0 16 -7 19 -40 19
-42 0 -52 12 -22 29 16 10 16 10 0 11 -9 0 -20 -4 -23 -10 -3 -5 -14 -10 -23
-10 -13 0 -12 5 8 20 33 26 25 24 -30 -5z"/>
<path d="M2528 7763 c7 -3 16 -2 19 1 4 3 -2 6 -13 5 -11 0 -14 -3 -6 -6z"/>
<path d="M5458 7763 c7 -3 16 -2 19 1 4 3 -2 6 -13 5 -11 0 -14 -3 -6 -6z"/>
<path d="M2284 7696 c-11 -9 -6 -11 26 -12 25 -1 37 2 33 9 -4 7 0 8 13 3 38
-16 49 -17 29 -5 -25 17 -81 19 -101 5z"/>
<path d="M2229 7663 c-1 -5 -1 -12 0 -17 1 -5 -5 -6 -14 -2 -11 4 -14 2 -9 -6
5 -8 2 -9 -10 -5 -10 4 -15 3 -11 -4 4 -5 16 -7 27 -3 14 4 18 2 14 -5 -4 -6
-17 -11 -28 -11 -12 0 -19 -3 -15 -6 3 -4 17 -4 30 0 20 5 24 12 23 36 -1 28
-5 39 -7 23z"/>
<path d="M5764 7637 c1 -23 6 -32 19 -33 12 -1 13 -1 2 3 -8 2 -15 9 -15 14 0
6 9 8 19 4 11 -3 22 -1 26 4 4 7 -1 8 -11 4 -12 -4 -15 -3 -10 5 5 8 1 10 -10
5 -11 -4 -15 -3 -10 5 3 6 3 13 -2 16 -5 3 -8 -9 -8 -27z"/>
<path d="M2123 7597 c-13 -5 -23 -14 -23 -19 0 -5 5 -6 10 -3 6 3 10 1 10 -4
0 -6 -10 -10 -22 -9 -20 2 -78 -27 -78 -39 0 -2 5 -1 11 2 6 4 17 -1 24 -11
13 -18 14 -18 15 -1 0 9 -5 17 -12 17 -6 0 -3 6 7 14 10 7 27 11 37 8 18 -4
18 -5 1 -18 -10 -7 -13 -14 -6 -14 6 0 15 5 18 10 3 6 14 10 23 10 15 0 15 -2
2 -11 -12 -8 -12 -10 -1 -7 8 2 15 11 17 19 1 7 5 21 8 30 10 24 -14 39 -41
26z m31 -30 c-3 -9 -14 -17 -23 -17 -14 1 -14 2 2 14 9 7 17 16 17 19 0 4 -8
4 -17 1 -15 -5 -16 -4 -3 5 19 13 33 0 24 -22z"/>
<path d="M5835 7593 c-12 -11 -13 -18 -5 -23 6 -4 13 -15 14 -25 2 -11 9 -21
17 -23 11 -3 11 -1 -1 7 -13 9 -13 11 2 11 9 0 20 -4 23 -10 3 -5 12 -10 18
-10 7 0 4 7 -6 14 -17 13 -17 14 0 18 10 3 32 -4 48 -14 29 -17 29 -18 5 -16
-17 2 -25 -3 -28 -16 -3 -16 0 -18 26 -13 16 3 39 3 50 0 17 -4 20 -9 12 -23
-15 -28 -12 -32 10 -13 20 17 20 18 -2 38 -46 42 -92 69 -115 67 -13 -1 -23 3
-23 9 0 5 5 7 10 4 6 -3 10 -2 10 3 0 5 -11 14 -25 20 -20 9 -27 8 -40 -5z
m45 -10 c0 -3 -7 -3 -15 1 -20 7 -19 -4 3 -20 15 -12 15 -13 1 -14 -18 0 -33
26 -24 40 6 9 35 3 35 -7z"/>
<path d="M5756 7544 c-7 -19 1 -34 19 -34 21 0 28 19 15 35 -16 19 -26 19 -34
-1z"/>
<path d="M2206 7535 c-6 -17 16 -31 33 -21 13 9 2 36 -14 36 -7 0 -16 -7 -19
-15z"/>
<path d="M1954 7477 c-60 -43 -91 -73 -91 -89 0 -10 6 -14 14 -11 8 3 12 12 8
20 -3 10 -1 13 9 10 11 -4 13 -1 9 10 -5 12 -3 14 7 8 8 -5 11 -4 7 2 -13 20
53 26 84 8 11 -7 12 -6 3 6 -5 8 -9 24 -8 37 2 27 -3 27 -42 -1z m26 -12 c-7
-8 -17 -15 -22 -15 -6 0 -5 7 2 15 7 8 17 15 22 15 6 0 5 -7 -2 -15z"/>
<path d="M6043 7463 c-17 -6 -17 -23 0 -23 8 0 14 7 14 15 0 8 -1 15 -1 14 -1
0 -7 -3 -13 -6z"/>
<path d="M6070 7456 c0 -2 8 -10 18 -17 15 -13 16 -12 3 4 -13 16 -21 21 -21
13z"/>
<path d="M2008 7417 c-9 -6 -8 -7 5 -3 9 3 17 1 17 -4 0 -6 12 -10 26 -10 34
0 26 24 -9 25 -14 1 -32 -2 -39 -8z"/>
<path d="M5925 7422 c-12 -12 -3 -22 20 -22 14 0 25 4 25 10 0 5 8 7 18 3 9
-3 14 -3 10 2 -8 9 -65 15 -73 7z"/>
<path d="M6095 7411 c-3 -7 0 -8 10 -5 10 4 14 2 10 -8 -5 -12 48 -54 58 -46
2 2 26 -14 52 -34 27 -21 45 -38 41 -38 -4 0 -19 9 -33 20 -16 12 -35 18 -47
15 -12 -3 -15 -2 -8 1 17 8 15 27 -3 20 -8 -3 -15 -1 -15 4 0 6 -7 10 -15 10
-11 0 -10 -5 6 -21 11 -11 18 -26 16 -33 -3 -8 7 -12 32 -12 30 0 37 -3 39
-22 4 -28 18 -29 25 -1 l6 20 20 -20 c12 -12 21 -27 21 -33 0 -10 2 -10 9 0 7
11 9 11 13 0 14 -38 -41 -54 -69 -20 -8 9 -12 11 -8 5 3 -7 1 -13 -4 -13 -6 0
-11 -18 -11 -40 l0 -41 74 3 c64 2 72 5 53 15 -14 7 -26 8 -33 2 -8 -7 -11 -2
-11 15 0 21 2 24 18 16 26 -15 33 -12 15 6 -15 15 -21 34 -11 34 2 0 15 -11
28 -24 18 -18 21 -28 14 -35 -6 -6 -7 -11 -1 -12 51 -4 96 -45 87 -80 -4 -15
-3 -20 6 -15 6 4 8 12 5 18 -4 7 -2 8 4 4 9 -5 9 -13 1 -27 -6 -12 -8 -24 -4
-27 3 -3 8 4 12 16 3 12 10 19 15 16 5 -3 7 -17 4 -30 -6 -24 9 -34 17 -11 5
14 47 -18 47 -37 0 -6 -5 -5 -12 2 -7 7 -19 12 -27 11 -10 0 -7 -4 6 -9 16 -7
21 -14 16 -26 -4 -11 -3 -15 4 -11 6 4 14 1 16 -5 4 -10 8 -9 17 2 10 13 11
12 6 -3 -3 -10 -6 -23 -6 -29 0 -6 -8 -4 -18 5 -16 15 -18 15 -18 -1 0 -21 42
-26 50 -6 3 8 11 14 17 14 9 0 9 -3 0 -14 -7 -8 -8 -16 -4 -18 15 -6 55 -68
44 -68 -5 0 -15 8 -20 18 -9 15 -10 15 -11 1 0 -18 26 -33 40 -24 5 3 6 13 3
22 -6 15 -5 16 9 3 9 -8 14 -18 11 -23 -2 -4 0 -6 6 -5 5 2 17 -6 26 -17 23
-28 6 4 -23 42 -14 19 -29 30 -38 26 -8 -3 -14 0 -14 6 0 6 4 11 9 11 26 0
-262 306 -400 425 -84 74 -95 81 -108 77 -8 -3 -11 0 -7 7 4 7 2 9 -7 5 -10
-3 -14 1 -14 12 2 20 -27 31 -38 15z m120 -111 c3 -5 -1 -10 -10 -10 -9 0 -13
5 -10 10 3 6 8 10 10 10 2 0 7 -4 10 -10z m385 -350 c0 -5 -4 -10 -10 -10 -5
0 -10 5 -10 10 0 6 5 10 10 10 6 0 10 -4 10 -10z"/>
<path d="M1779 7337 c-35 -30 -70 -61 -78 -70 -12 -15 -11 -17 3 -17 10 0 14
-4 11 -10 -3 -5 -1 -10 5 -10 6 0 8 10 4 24 -5 19 3 29 48 62 29 21 57 39 62
39 5 0 10 8 12 18 1 9 1 17 0 17 -1 0 -31 -24 -67 -53z"/>
<path d="M1900 7375 c-7 -9 -8 -15 -2 -15 5 0 12 7 16 15 3 8 4 15 2 15 -2 0
-9 -7 -16 -15z"/>
<path d="M1785 7311 c-38 -26 -59 -61 -35 -61 6 0 9 4 6 9 -9 14 16 26 51 26
31 -1 32 0 15 19 -16 18 -16 19 1 13 9 -4 17 -2 17 3 0 20 -17 17 -55 -9z m22
-17 c-3 -3 -12 -4 -19 -1 -8 3 -5 6 6 6 11 1 17 -2 13 -5z"/>
<path d="M6080 7266 c0 -22 17 -28 24 -10 9 22 8 24 -9 24 -8 0 -15 -6 -15
-14z"/>
<path d="M1900 7255 c0 -8 5 -15 10 -15 6 0 10 7 10 15 0 8 -4 15 -10 15 -5 0
-10 -7 -10 -15z"/>
<path d="M1559 7132 c-63 -64 -138 -146 -168 -182 -30 -36 -59 -68 -65 -72 -8
-5 -7 -8 2 -8 6 0 12 -5 12 -10 0 -6 -7 -10 -16 -8 -10 2 -29 -16 -51 -47 -18
-27 -44 -61 -56 -74 -22 -24 -22 -24 -1 -13 12 6 24 9 26 6 10 -9 33 30 33 55
0 16 5 25 13 23 8 -1 11 1 9 5 -3 5 2 15 11 23 14 13 15 12 9 -3 -3 -9 -2 -19
4 -23 12 -7 39 14 39 30 0 6 -5 3 -11 -6 -5 -10 -14 -18 -20 -18 -5 0 2 17 16
37 14 21 25 44 25 53 1 13 2 13 13 -1 7 -8 21 -15 33 -15 17 0 20 6 20 39 -1
25 5 42 14 48 8 4 10 9 5 9 -6 0 -16 -5 -23 -12 -7 -7 -12 -8 -12 -2 0 12 32
44 43 44 4 0 7 -12 7 -26 0 -21 4 -25 22 -22 14 2 24 11 26 23 2 18 2 18 -8 3
-17 -27 -26 -22 -27 16 -1 23 6 41 20 53 11 10 17 13 14 6 -4 -6 -2 -15 4 -19
9 -5 10 0 6 16 -4 17 2 30 29 56 20 18 42 30 50 27 8 -3 14 0 14 6 0 6 -5 11
-12 11 -6 0 -3 7 8 15 26 19 35 19 27 -2 -5 -15 -3 -16 8 -5 20 19 26 15 24
-18 -2 -29 0 -30 42 -30 l43 0 0 39 c0 35 -2 38 -25 33 -15 -2 -25 0 -25 7 0
6 -5 11 -11 11 -5 0 -7 -4 -4 -10 8 -13 -26 -13 -45 1 -12 8 -9 9 10 5 14 -3
20 -3 13 0 -7 3 -9 12 -6 20 5 13 7 13 14 2 6 -9 9 -9 9 -1 0 33 -27 13 -131
-95z m-129 -201 c0 -28 -20 -42 -38 -25 -13 13 -12 17 3 34 20 22 35 18 35 -9z
m-174 -189 c-18 -16 -18 -16 -6 6 6 13 14 21 18 18 3 -4 -2 -14 -12 -24z"/>
<path d="M1405 6930 c-3 -5 -1 -10 4 -10 6 0 11 5 11 10 0 6 -2 10 -4 10 -3 0
-8 -4 -11 -10z"/>
<path d="M6137 7224 c-13 -13 -7 -24 14 -24 11 0 19 5 17 12 -5 14 -22 21 -31
12z"/>
<path d="M1730 7210 c-9 -6 -10 -10 -3 -10 6 0 15 5 18 10 8 12 4 12 -15 0z"/>
<path d="M1780 7210 c0 -5 16 -10 36 -10 21 0 33 4 29 10 -3 6 -19 10 -36 10
-16 0 -29 -4 -29 -10z"/>
<path d="M1640 7140 c0 -5 5 -10 10 -10 6 0 10 5 10 10 0 6 -4 10 -10 10 -5 0
-10 -4 -10 -10z"/>
<path d="M1577 7122 c-22 -25 -21 -35 1 -21 10 7 19 18 19 25 0 18 -1 18 -20
-4z"/>
<path d="M6408 7125 c-3 -3 5 -18 17 -31 13 -14 21 -32 18 -40 -3 -8 -1 -14 4
-14 5 0 9 8 10 18 2 21 -39 77 -49 67z"/>
<path d="M1596 7070 c4 -19 3 -22 -5 -10 -11 16 -27 8 -16 -9 3 -6 28 -11 56
-11 45 0 49 2 49 24 0 21 -5 24 -45 28 -43 3 -44 2 -39 -22z"/>
<path d="M1742 7070 c0 -19 2 -27 5 -17 2 9 2 25 0 35 -3 9 -5 1 -5 -18z"/>
<path d="M6363 7093 c-38 -4 -43 -7 -43 -29 0 -22 4 -24 49 -24 28 0 53 5 56
11 11 17 -5 25 -16 9 -8 -11 -9 -8 -5 13 4 15 5 26 4 25 -2 -1 -22 -3 -45 -5z"/>
<path d="M1496 7042 c-2 -4 -1 -14 5 -22 7 -12 9 -10 9 8 0 23 -5 28 -14 14z"/>
<path d="M6480 6985 c0 -9 7 -18 15 -22 23 -8 24 0 3 20 -15 14 -18 15 -18 2z"/>
<path d="M1415 6781 c-3 -5 -1 -12 4 -15 5 -3 11 1 15 9 6 16 -9 21 -19 6z"/>
<path d="M6560 6770 c0 -13 5 -20 13 -17 6 2 12 10 12 17 0 7 -6 15 -12 18 -8
2 -13 -5 -13 -18z"/>
<path d="M6720 6767 c0 -15 21 -47 31 -47 6 0 7 5 4 10 -3 6 -1 10 4 10 6 0
11 -4 11 -10 0 -5 5 -10 12 -10 6 0 3 8 -7 20 -10 11 -22 17 -27 13 -6 -3 -14
1 -19 8 -5 8 -9 10 -9 6z"/>
<path d="M1272 6728 c-14 -14 -15 -54 -2 -83 8 -17 9 -15 8 10 -1 50 2 66 11
61 13 -8 42 4 35 15 -8 13 -38 11 -52 -3z"/>
<path d="M6661 6731 c-11 -7 -5 -11 22 -16 40 -8 43 -16 37 -112 -1 -18 3 -33
8 -33 13 0 12 128 0 153 -9 18 -44 22 -67 8z"/>
<path d="M1149 6633 c-31 -49 -42 -76 -40 -98 2 -27 1 -28 -11 -13 -12 17 -14
15 -31 -14 -17 -29 -17 -30 -1 -17 16 12 17 12 11 -3 -3 -10 -2 -18 4 -18 6 0
7 -6 3 -12 -5 -10 -4 -10 5 -2 10 9 10 17 2 32 -16 29 -13 41 4 18 13 -18 14
-17 19 5 3 13 8 37 11 53 2 16 8 32 13 35 5 3 19 22 31 41 24 40 29 30 6 -13
-13 -25 -13 -30 0 -44 8 -8 12 -20 8 -26 -3 -7 -2 -8 3 -4 7 6 14 147 8 147
-1 0 -21 -30 -45 -67z"/>
<path d="M6805 6632 c0 -63 2 -68 22 -70 23 -2 40 14 28 26 -3 3 -10 0 -15 -8
-5 -8 -12 -11 -17 -7 -4 5 -2 12 6 16 10 7 10 14 -3 39 -23 45 -20 53 5 12 12
-19 26 -38 31 -41 5 -3 10 -12 12 -20 1 -8 7 -24 14 -36 7 -12 9 -30 6 -40 -6
-16 -5 -16 10 2 17 20 17 20 10 -4 -5 -20 -3 -23 10 -18 12 5 19 -1 26 -17 5
-13 13 -27 19 -30 11 -7 -1 18 -35 71 -12 18 -24 30 -27 26 -4 -3 -8 -1 -8 5
-1 7 -2 15 -3 20 -1 6 -87 142 -90 142 -1 0 -1 -31 -1 -68z"/>
<path d="M1142 6578 c2 -6 10 -14 16 -16 7 -2 10 2 6 12 -7 18 -28 22 -22 4z"/>
<path d="M6880 6452 c0 -12 4 -22 9 -22 10 0 9 26 -2 36 -4 4 -7 -2 -7 -14z"/>
<path d="M1020 6431 c-6 -14 -9 -23 -5 -19 3 3 18 0 33 -8 35 -18 40 -3 8 29
l-24 24 -12 -26z"/>
<path d="M6910 6405 c7 -8 16 -12 21 -9 13 8 1 24 -18 24 -13 0 -13 -3 -3 -15z"/>
<path d="M6963 6394 c0 -17 2 -22 7 -13 5 6 6 18 3 26 -8 19 -10 16 -10 -13z"/>
<path d="M1007 6376 c3 -14 2 -17 -4 -9 -7 9 -13 5 -26 -16 -14 -23 -14 -28
-2 -28 8 0 15 7 15 14 0 8 4 12 9 9 5 -4 11 0 14 6 3 8 9 3 15 -12 7 -17 11
-19 11 -8 1 9 -4 20 -10 24 -6 3 -9 14 -6 23 2 10 -1 18 -8 18 -7 0 -10 -9 -8
-21z"/>
<path d="M6985 6380 c-3 -6 -3 -19 0 -30 6 -20 -9 -28 -18 -10 -3 6 -4 5 -3
-2 2 -7 9 -13 17 -13 10 0 13 9 11 30 l-3 30 20 -32 c26 -41 34 -43 15 -3 -18
35 -30 44 -39 30z"/>
<path d="M1059 6333 c5 -10 10 -22 11 -28 1 -5 4 -12 7 -15 3 -3 3 6 0 20 -5
22 -5 23 7 7 12 -15 15 -16 26 -2 7 9 10 18 6 22 -3 3 -6 0 -6 -7 0 -10 -5 -9
-18 3 -25 23 -46 22 -33 0z"/>
<path d="M6910 6335 c-11 -13 -15 -13 -21 -3 -6 9 -9 9 -9 1 0 -15 40 -44 52
-37 4 3 6 10 2 15 -3 5 -10 6 -16 3 -7 -4 -8 -2 -4 5 4 6 11 9 16 6 4 -3 10 2
14 10 7 20 -18 19 -34 0z"/>
<path d="M946 6293 c-6 -14 -5 -15 5 -6 7 7 10 15 7 18 -3 3 -9 -2 -12 -12z"/>
<path d="M924 6240 c-4 -16 -10 -30 -14 -30 -9 0 -32 -51 -25 -58 3 -3 5 0 5
7 0 7 5 9 12 5 8 -5 9 -2 5 9 -3 9 -2 19 2 22 5 3 17 -14 26 -38 16 -39 18
-40 26 -20 9 24 -7 83 -22 83 -5 0 -7 11 -3 25 3 14 3 25 0 25 -4 0 -9 -13
-12 -30z"/>
<path d="M7065 6246 c6 -26 4 -28 -10 -16 -13 11 -15 10 -10 -2 3 -8 1 -27 -4
-41 -6 -16 -7 -36 -2 -49 9 -22 9 -22 16 -3 4 11 9 27 12 35 10 29 11 75 1 90
-6 11 -7 7 -3 -14z"/>
<path d="M7093 6186 c0 -15 -9 -43 -19 -62 -16 -30 -17 -36 -4 -44 18 -11 30
-4 30 21 0 10 5 19 10 19 14 0 12 41 -4 69 l-13 24 0 -27z"/>
<path d="M859 6108 c-8 -18 -12 -39 -11 -47 2 -8 -1 -10 -9 -5 -9 5 -10 2 -6
-9 3 -9 3 -18 -1 -20 -4 -2 -1 -2 6 0 8 1 12 -3 9 -9 -2 -7 -12 -12 -22 -10
-11 2 -14 -1 -10 -8 4 -7 1 -16 -6 -21 -12 -8 -12 -10 0 -18 7 -5 10 -14 7
-20 -4 -6 -3 -11 2 -11 16 0 22 13 11 26 -8 10 -7 17 4 29 24 23 47 8 47 -31
0 -27 4 -34 20 -34 11 0 20 6 20 13 0 7 3 8 8 2 18 -25 32 -14 32 25 0 40 0
40 -39 40 -31 0 -41 4 -46 20 -4 11 -10 18 -15 15 -4 -3 -7 6 -6 20 1 23 2 24
14 8 11 -15 12 -15 12 6 0 12 -4 19 -10 16 -13 -8 -13 1 1 27 6 11 9 22 6 24
-2 3 -10 -10 -18 -28z"/>
<path d="M7130 6116 c0 -8 4 -17 9 -20 5 -4 7 3 4 14 -6 23 -13 26 -13 6z"/>
<path d="M917 6089 c-3 -13 -1 -19 6 -16 15 5 22 37 9 37 -5 0 -12 -9 -15 -21z"/>
<path d="M4446 6081 c-19 -7 -19 -8 2 -13 15 -4 22 -2 22 8 0 8 -1 14 -2 13
-2 0 -12 -4 -22 -8z"/>
<path d="M7120 6067 c0 -13 9 -35 21 -48 20 -24 20 -24 9 -1 -8 16 -8 28 1 45
6 12 8 19 4 15 -5 -4 -14 -3 -22 3 -10 9 -13 6 -13 -14z"/>
<path d="M4621 6054 c0 -11 3 -14 6 -6 3 7 2 16 -1 19 -3 4 -6 -2 -5 -13z"/>
<path d="M905 6050 c3 -5 8 -10 11 -10 2 0 4 5 4 10 0 6 -5 10 -11 10 -5 0 -7
-4 -4 -10z"/>
<path d="M4160 6050 c0 -12 67 -12 95 0 14 6 4 9 -37 9 -33 1 -58 -3 -58 -9z"/>
<path d="M4310 6051 c0 -19 25 -29 50 -19 24 10 24 10 5 18 -27 12 -55 12 -55
1z"/>
<path d="M1824 6028 c-4 -7 -2 -8 4 -4 7 4 12 1 12 -8 0 -9 -8 -16 -17 -17
-14 0 -15 -2 -3 -6 8 -3 22 -12 32 -20 13 -12 20 -12 37 -1 12 7 21 16 21 20
0 13 -12 9 -25 -9 -7 -9 -17 -13 -24 -9 -13 9 9 36 30 36 19 0 5 10 -30 20
-20 6 -33 5 -37 -2z"/>
<path d="M7166 5995 c6 -41 -8 -46 -25 -9 -14 32 -21 28 -14 -8 3 -15 13 -29
22 -31 12 -3 10 -6 -9 -15 -23 -10 -22 -11 15 -9 36 2 40 5 41 30 1 15 -3 27
-8 27 -5 0 -8 6 -7 13 3 23 -1 37 -11 37 -6 0 -8 -15 -4 -35z"/>
<path d="M1765 5989 c-11 -17 27 -40 44 -26 12 10 12 12 -2 15 -10 2 -17 8
-17 13 0 12 -17 11 -25 -2z"/>
<path d="M3110 5990 l-1135 -5 1125 -2 c619 -1 1143 2 1165 6 30 7 33 8 10 7
-16 0 -541 -3 -1165 -6z"/>
<path d="M4316 5992 c-5 -9 74 -5 82 3 3 3 -13 5 -36 5 -22 0 -43 -4 -46 -8z"/>
<path d="M4512 5992 c-21 -6 -20 -8 13 -18 19 -6 35 -7 35 -3 0 5 -8 9 -17 9
-15 0 -16 2 -3 10 17 11 7 11 -28 2z"/>
<path d="M6210 5990 c8 -5 20 -10 25 -10 6 0 3 5 -5 10 -8 5 -19 10 -25 10 -5
0 -3 -5 5 -10z"/>
<path d="M4440 5980 l-25 -7 28 -8 c22 -6 26 -10 15 -17 -10 -8 -9 -9 4 -5 9
3 24 -1 35 -8 21 -17 37 -19 28 -5 -3 6 4 10 17 10 19 0 20 2 8 10 -8 6 -28 7
-45 4 -23 -4 -26 -3 -15 5 12 9 10 11 -10 11 -20 0 -22 2 -10 10 17 11 6 11
-30 0z"/>
<path d="M6164 5972 c0 -13 6 -18 18 -14 20 5 35 22 19 22 -5 0 -16 2 -23 5
-9 4 -14 -2 -14 -13z"/>
<path d="M850 5966 c0 -9 5 -16 10 -16 6 0 10 4 10 9 0 6 -4 13 -10 16 -5 3
-10 -1 -10 -9z"/>
<path d="M1762 5933 c0 -19 4 -30 12 -29 18 2 83 56 69 56 -7 0 -22 -9 -32
-19 -19 -19 -20 -19 -34 2 -13 21 -14 20 -15 -10z"/>
<path d="M6203 5953 c-13 -2 -23 -8 -23 -13 0 -4 -15 -14 -32 -21 -18 -7 -37
-15 -42 -17 -5 -3 -6 0 -2 6 3 6 -12 3 -34 -5 -22 -9 -40 -20 -40 -25 0 -5 9
-4 20 2 11 6 20 8 20 4 0 -3 8 0 18 7 15 13 16 12 3 -3 -7 -10 -20 -18 -28
-18 -7 0 -16 -7 -20 -16 -6 -15 -8 -15 -20 2 -11 15 -13 15 -13 2 0 -20 -15
-26 -58 -23 l-33 2 24 -21 c21 -19 23 -23 10 -35 -13 -12 -17 -12 -24 0 -8 11
-9 9 -7 -6 3 -17 -3 -20 -37 -19 -38 0 -41 -2 -40 -25 1 -14 -4 -33 -9 -41 -6
-8 6 -1 26 14 21 16 35 33 32 38 -4 6 -1 8 7 6 19 -7 101 53 95 69 -3 7 -1 13
4 13 6 0 10 -5 10 -11 0 -9 72 40 90 61 12 15 104 60 121 60 11 0 19 5 19 10
0 6 -3 9 -7 9 -5 -1 -18 -4 -30 -6z m-223 -133 c8 -5 11 -12 8 -16 -4 -3 -14
1 -23 10 -18 17 -9 21 15 6z m-90 -85 c0 -2 -10 -10 -22 -16 -21 -11 -22 -11
-9 4 13 16 31 23 31 12z"/>
<path d="M786 5935 c-9 -26 -7 -32 5 -12 6 10 9 21 6 23 -2 3 -7 -2 -11 -11z"/>
<path d="M4545 5920 c-8 -13 15 -24 27 -12 6 6 4 11 -6 15 -8 3 -18 2 -21 -3z"/>
<path d="M5917 5924 c-13 -13 -7 -24 14 -24 11 0 19 5 17 12 -5 14 -22 21 -31
12z"/>
<path d="M1630 5880 c0 -22 5 -40 10 -40 6 0 10 18 10 40 0 22 -4 40 -10 40
-5 0 -10 -18 -10 -40z"/>
<path d="M1680 5903 c0 -15 2 -16 10 -3 12 19 12 13 1 -27 -6 -20 -6 -33 0
-35 7 -2 6 -19 0 -48 -7 -29 -10 -314 -10 -795 0 -628 2 -757 14 -790 8 -22
15 -48 15 -57 0 -10 4 -18 9 -18 8 0 5 37 -5 69 -8 24 -9 1601 -1 1601 4 0 7
7 7 15 0 8 4 14 9 13 5 -2 8 0 8 3 -1 4 7 16 17 28 29 32 11 37 -19 6 -34 -33
-43 -27 -11 8 26 29 18 47 -21 47 -15 0 -23 -6 -23 -17z m17 -1286 c-1 -210
-2 -38 -2 383 0 421 1 593 2 383 2 -211 2 -555 0 -766z"/>
<path d="M4586 5905 c-3 -9 0 -15 9 -15 8 0 15 -5 15 -11 0 -6 5 -7 13 -2 6 4
21 6 32 5 11 -2 29 3 39 11 18 13 18 14 -9 21 -15 4 -30 5 -33 1 -3 -3 2 -5
12 -5 9 0 15 -4 11 -9 -3 -5 -18 -8 -33 -6 -15 2 -31 4 -35 4 -5 1 -5 6 -2 11
3 6 2 10 -3 10 -6 0 -12 -7 -16 -15z"/>
<path d="M6005 5909 c-11 -17 -2 -18 19 -3 17 12 17 14 4 14 -9 0 -20 -5 -23
-11z"/>
<path d="M6282 5908 c-9 -9 -8 -16 6 -31 16 -18 17 -92 22 -1106 l5 -1086 0
1114 c0 761 -3 1115 -10 1118 -6 2 -16 -2 -23 -9z m28 -8 c0 -5 -4 -10 -10
-10 -5 0 -10 5 -10 10 0 6 5 10 10 10 6 0 10 -4 10 -10z"/>
<path d="M6354 5865 c0 -30 2 -52 5 -50 7 8 10 105 2 105 -3 0 -6 -25 -7 -55z"/>
<path d="M6381 5894 c0 -11 3 -14 6 -6 3 7 2 16 -1 19 -3 4 -6 -2 -5 -13z"/>
<path d="M780 5881 c0 -7 -4 -10 -9 -6 -5 3 -2 -13 6 -35 15 -38 15 -42 -1
-58 -17 -16 -18 -15 -12 13 3 17 2 36 -2 42 -11 17 -54 -119 -45 -142 4 -12 3
-16 -4 -12 -6 4 -8 -3 -5 -20 3 -15 1 -23 -4 -20 -6 3 -10 -2 -10 -11 -1 -9
-5 -26 -9 -37 l-8 -20 17 20 c9 11 16 16 15 10 -3 -27 15 -55 35 -54 11 0 15
3 9 6 -7 2 -13 9 -13 14 0 6 5 7 10 4 6 -3 10 -1 10 6 0 7 -8 9 -21 6 -20 -5
-20 -2 -16 46 8 84 22 132 36 129 22 -5 39 31 36 76 -2 38 -15 74 -15 43z"/>
<path d="M4696 5875 c-18 -14 -18 -15 5 -34 13 -10 30 -17 39 -14 10 3 9 1 -3
-7 -9 -6 -23 -8 -30 -4 -8 6 -8 3 1 -8 8 -9 20 -14 28 -11 10 4 12 0 8 -13 -6
-16 -5 -17 7 -6 17 16 26 15 33 -4 5 -12 2 -15 -10 -10 -14 5 -15 4 -5 -8 7
-8 19 -12 28 -9 12 5 14 1 9 -18 -3 -13 -3 -18 0 -11 9 19 26 14 20 -5 -3 -10
-1 -25 4 -33 5 -8 10 -13 11 -10 6 32 4 56 -5 62 -6 4 -7 11 -2 15 5 4 11 2
13 -4 6 -17 20 -16 26 1 4 10 -4 12 -29 10 -35 -2 -56 17 -47 43 2 6 -1 14 -7
18 -8 5 -8 11 0 20 7 9 6 16 -5 25 -13 10 -15 9 -15 -9 0 -16 -6 -20 -22 -18
-28 3 -39 16 -32 40 6 20 5 21 -20 2z m87 -69 c4 -10 0 -12 -14 -9 -22 6 -26
23 -5 23 8 0 16 -6 19 -14z"/>
<path d="M5956 5875 c4 -8 12 -15 20 -15 8 0 14 7 14 15 0 8 -9 15 -20 15 -13
0 -18 -5 -14 -15z"/>
<path d="M7210 5885 c-8 -49 -6 -94 7 -110 13 -19 15 -19 27 -3 11 15 13 10
12 -33 -1 -33 3 -53 12 -58 10 -6 14 -39 15 -128 2 -92 5 -119 15 -116 8 4 12
-7 12 -36 0 -37 2 -41 25 -41 23 0 25 -4 25 -47 0 -25 3 -43 7 -39 10 9 10 86
1 86 -4 0 -7 17 -6 37 1 20 -4 39 -10 41 -7 2 -10 8 -7 12 3 5 0 30 -6 56 -10
38 -14 44 -20 28 -11 -27 -10 -54 1 -29 8 18 9 18 9 -6 1 -16 -4 -26 -14 -26
-11 0 -15 12 -15 46 0 25 -3 57 -6 71 -8 30 11 16 20 -15 3 -11 3 -6 0 10 -3
17 -6 38 -7 47 -1 9 -5 14 -11 11 -5 -3 -7 5 -4 20 3 17 1 24 -5 20 -7 -4 -8
0 -4 12 9 23 -34 159 -45 142 -4 -6 -5 -25 -2 -42 6 -28 5 -29 -12 -13 -16 16
-16 20 -1 58 8 22 12 38 7 35 -5 -3 -11 1 -13 7 -3 7 -6 9 -7 3z"/>
<path d="M4653 5850 c14 -11 28 -20 31 -20 3 0 -2 9 -11 20 -10 11 -24 20 -32
20 -8 0 -3 -8 12 -20z"/>
<path d="M6273 4679 c-2 -974 0 -1156 11 -1156 8 0 12 6 9 14 -5 14 12 19 20
6 2 -5 1 -1 -2 7 -3 8 -8 528 -11 1155 l-5 1140 -5 -1125 -5 -1125 -5 1120 -5
1120 -2 -1156z m27 -1104 c0 -8 -4 -15 -10 -15 -5 0 -10 7 -10 15 0 8 5 15 10
15 6 0 10 -7 10 -15z"/>
<path d="M1630 5793 c0 -22 2 -25 10 -13 13 20 13 40 0 40 -5 0 -10 -12 -10
-27z"/>
<path d="M1718 5783 c-2 -5 -1 -361 2 -793 l5 -785 3 793 c1 435 0 792 -2 792
-3 0 -6 -3 -8 -7z"/>
<path d="M793 5710 c0 -30 2 -43 4 -27 2 15 2 39 0 55 -2 15 -4 2 -4 -28z"/>
<path d="M4937 5740 c3 -11 9 -20 14 -20 5 0 9 9 9 20 0 11 -6 20 -14 20 -9 0
-12 -7 -9 -20z"/>
<path d="M4866 5719 c-10 -12 -14 -24 -10 -28 14 -10 17 -44 4 -36 -9 6 -9 2
-1 -14 16 -29 18 -27 16 22 -1 23 2 45 8 48 5 4 8 12 6 18 -3 7 -12 3 -23 -10z"/>
<path d="M5600 5695 c0 -14 4 -25 9 -25 12 0 23 29 15 41 -10 18 -24 9 -24
-16z"/>
<path d="M5766 5693 c-7 -7 -26 -12 -61 -16 -15 -1 -21 -9 -20 -26 0 -23 25
-44 25 -22 0 6 -5 11 -12 11 -6 0 -9 2 -6 5 3 3 16 1 29 -4 13 -5 18 -10 10
-10 -8 -1 -12 -4 -8 -7 3 -4 23 4 43 17 32 19 35 24 21 34 -9 7 -14 15 -10 18
3 4 4 7 1 7 -2 0 -8 -3 -12 -7z m24 -27 c0 -2 -9 -6 -20 -9 -11 -3 -18 -1 -14
4 5 9 34 13 34 5z"/>
<path d="M4934 5665 c1 -8 7 -20 13 -26 7 -7 11 -3 11 15 0 15 -6 26 -13 26
-7 0 -12 -7 -11 -15z"/>
<path d="M4904 5579 c0 -9 4 -15 8 -13 8 5 34 -36 30 -48 -1 -5 3 -8 8 -8 14
0 12 11 -5 34 -17 22 -20 50 -5 41 6 -3 10 -2 10 3 0 5 -10 10 -23 10 -15 0
-23 -6 -23 -19z"/>
<path d="M5619 5583 c-13 -15 -12 -15 11 -3 34 17 36 20 18 20 -9 0 -22 -7
-29 -17z"/>
<path d="M5640 5568 c-19 -12 -38 -26 -41 -32 -4 -5 -14 -6 -22 -3 -8 3 -20 0
-26 -6 -6 -6 -33 -11 -59 -12 l-47 0 0 -44 c0 -40 -2 -45 -25 -46 -14 -1 -28
3 -32 9 -10 15 -21 0 -23 -32 -1 -15 -5 -34 -10 -42 -5 -8 6 -2 25 14 19 16
34 34 32 39 -2 5 4 7 12 4 15 -6 31 8 31 27 0 5 6 11 14 14 8 3 11 0 7 -7 -5
-7 -1 -9 9 -5 22 9 14 37 -15 51 l-25 12 27 1 c15 0 30 -5 33 -10 4 -6 11 -8
16 -5 5 4 9 1 9 -5 0 -10 108 59 145 92 16 14 1 8 -35 -14z m-85 -58 c-3 -5
-12 -10 -18 -10 -7 0 -6 4 3 10 19 12 23 12 15 0z m-80 -30 c-3 -5 -10 -10
-16 -10 -5 0 -9 5 -9 10 0 6 7 10 16 10 8 0 12 -4 9 -10z m-77 -69 c11 -6 10
-10 -4 -15 -9 -3 -19 -4 -22 -1 -3 3 1 5 9 5 11 0 11 2 -1 10 -8 5 -10 10 -5
10 6 0 16 -4 23 -9z"/>
<path d="M662 5520 c-6 -27 -8 -58 -4 -67 5 -13 9 -5 13 27 l6 45 1 -42 c2
-31 6 -43 17 -43 12 0 15 13 15 59 0 33 -4 62 -8 65 -5 3 -8 -18 -6 -47 l3
-52 -9 48 c-5 27 -10 51 -13 53 -2 2 -9 -18 -15 -46z"/>
<path d="M720 5528 c0 -4 4 -8 9 -8 6 0 12 4 15 8 3 5 -1 9 -9 9 -8 0 -15 -4
-15 -9z"/>
<path d="M752 5480 c1 -22 5 -40 9 -40 4 0 7 18 7 40 0 22 -4 40 -9 40 -5 0
-9 -18 -7 -40z"/>
<path d="M7233 5480 c2 -52 17 -52 17 0 0 22 -4 40 -9 40 -5 0 -8 -18 -8 -40z"/>
<path d="M7262 5460 c0 -14 2 -19 5 -12 2 6 2 18 0 25 -3 6 -5 1 -5 -13z"/>
<path d="M4977 5427 c-3 -7 -3 -34 0 -60 5 -42 7 -45 19 -30 18 25 18 103 0
103 -8 0 -16 -6 -19 -13z m20 -54 c-3 -10 -5 -4 -5 12 0 17 2 24 5 18 2 -7 2
-21 0 -30z"/>
<path d="M5031 5424 c0 -11 3 -14 6 -6 3 7 2 16 -1 19 -3 4 -6 -2 -5 -13z"/>
<path d="M5190 5400 c-9 -6 -10 -10 -3 -10 6 0 15 5 18 10 8 12 4 12 -15 0z"/>
<path d="M5021 5391 c0 -7 4 -31 10 -51 10 -32 9 -42 -5 -61 -15 -22 -16 -22
-17 -4 -1 11 -5 2 -10 -20 -10 -50 -12 -1595 -1 -1595 4 0 6 354 4 787 -1 433
0 784 3 781 8 -8 11 -1588 3 -1588 -5 0 -8 -9 -8 -20 0 -11 4 -20 9 -20 21 0
31 115 32 373 1 150 5 254 9 232 l7 -40 2 37 c0 20 -3 40 -9 43 -5 3 -10 13
-10 21 0 8 4 13 8 10 14 -8 28 47 22 89 -5 34 -7 37 -13 18 -5 -12 -4 -30 2
-40 6 -13 5 -24 -5 -38 -12 -17 -14 37 -13 408 1 235 4 427 8 427 4 0 5 18 3
41 -12 125 -18 -50 -22 -734 l-6 -762 1 780 c0 429 4 788 9 798 4 9 15 17 23
17 11 0 14 14 12 61 -2 61 -3 62 -20 40 l-18 -21 -4 22 c-2 13 -5 17 -6 9z"/>
<path d="M5147 5373 c-11 -10 -8 -25 3 -18 6 3 10 2 10 -4 0 -20 -19 -20 -25
0 -6 17 -9 19 -16 8 -11 -18 -11 -32 0 -24 5 3 12 1 16 -5 4 -7 12 -7 26 0 13
7 19 7 19 0 0 -5 -5 -10 -12 -10 -6 0 -8 -3 -4 -7 4 -5 14 1 22 12 14 19 15
19 20 -3 7 -25 19 -29 28 -7 3 8 16 15 28 15 22 0 22 -1 -7 -25 -16 -13 -25
-24 -19 -25 5 0 20 9 32 20 12 12 22 18 22 15 0 -3 11 2 25 11 30 20 25 28
-18 30 -18 1 -26 -1 -19 -3 23 -9 12 -18 -23 -19 -33 0 -39 5 -36 34 1 6 -1
12 -4 12 -3 0 -14 -6 -25 -12 -17 -11 -22 -10 -28 0 -5 7 -11 9 -15 5z m182
-26 c-2 -1 -13 -9 -24 -17 -19 -14 -19 -14 -6 3 7 9 18 17 24 17 6 0 8 -1 6
-3z"/>
<path d="M625 5350 c3 -5 8 -10 11 -10 2 0 4 5 4 10 0 6 -5 10 -11 10 -5 0 -7
-4 -4 -10z"/>
<path d="M630 5314 c0 -8 -4 -12 -10 -9 -5 3 -10 2 -10 -4 0 -5 5 -13 10 -16
6 -3 10 -18 9 -33 l-1 -27 -8 25 c-4 14 -9 18 -10 10 -1 -8 -3 -26 -4 -40 -2
-14 -7 -38 -11 -55 -8 -28 -7 -29 8 -13 10 10 14 24 10 35 -5 14 -3 16 7 6 11
-10 11 -20 0 -58 -7 -25 -10 -48 -6 -52 3 -3 6 5 6 18 0 15 3 20 8 12 4 -7 8
39 9 102 1 63 -1 115 -3 115 -2 0 -4 -7 -4 -16z"/>
<path d="M5107 5276 c-9 -24 -9 -26 5 -23 7 1 13 -10 13 -25 1 -15 3 -30 6
-33 9 -8 69 62 61 71 -4 4 2 4 13 0 14 -5 17 -4 9 4 -12 12 -47 3 -39 -10 3
-4 -6 -7 -20 -6 -23 1 -24 2 -8 15 17 12 16 13 -4 8 -12 -3 -24 0 -26 6 -2 6
-6 3 -10 -7z m43 -51 c-7 -9 -15 -13 -17 -11 -7 7 7 26 19 26 6 0 6 -6 -2 -15z"/>
<path d="M7381 5254 c0 -11 3 -14 6 -6 3 7 2 16 -1 19 -3 4 -6 -2 -5 -13z"/>
<path d="M7361 5243 c0 -12 5 -28 12 -35 6 -7 13 -31 14 -53 2 -31 0 -37 -8
-25 -9 13 -10 12 -5 -3 3 -10 6 -24 6 -30 0 -7 7 2 16 18 13 24 13 37 4 68 -6
20 -15 37 -20 37 -5 0 -11 10 -13 23 -4 22 -4 22 -6 0z"/>
<path d="M5070 5186 c0 -8 5 -18 11 -21 5 -4 7 -19 4 -35 -7 -32 3 -80 17 -80
6 0 7 8 3 18 -16 37 -16 50 -3 63 21 21 27 44 16 60 -8 11 -9 10 -4 -3 3 -12
0 -18 -9 -18 -8 0 -15 7 -15 15 0 8 -4 15 -10 15 -5 0 -10 -6 -10 -14z"/>
<path d="M7362 5170 c0 -14 2 -19 5 -12 2 6 2 18 0 25 -3 6 -5 1 -5 -13z"/>
<path d="M7404 5047 c-1 -38 0 -40 8 -15 5 15 6 34 1 42 -6 10 -9 1 -9 -27z"/>
<path d="M5060 5063 c0 -13 5 -23 10 -23 13 0 13 11 0 30 -8 12 -10 11 -10 -7z"/>
<path d="M620 5063 c0 -6 -3 -20 -6 -30 -5 -15 -4 -16 6 -3 9 12 10 1 6 -50
-2 -36 -1 -73 3 -83 3 -10 7 19 8 65 1 46 -2 90 -7 98 -6 9 -10 10 -10 3z"/>
<path d="M7367 5055 c-3 -11 -5 -56 -5 -100 1 -66 2 -72 8 -35 5 40 7 36 11
-38 4 -75 -3 -107 -14 -64 -3 9 -5 2 -6 -15 -1 -33 11 -43 25 -22 4 6 7 56 8
110 0 54 -2 91 -5 82 -5 -15 -6 -15 -12 1 -4 10 -7 30 -6 44 l1 27 8 -25 c6
-20 8 -21 8 -5 0 11 -3 29 -7 40 l-8 20 -6 -20z"/>
<path d="M590 5019 c5 -19 5 -58 1 -89 -6 -37 -9 -45 -11 -25 -1 17 -4 25 -6
19 -2 -5 0 -35 5 -65 8 -48 9 -50 10 -16 0 20 6 37 12 37 7 0 9 -15 4 -42 -4
-31 -3 -39 4 -28 13 19 14 67 1 75 -5 3 -8 37 -7 75 1 43 -3 74 -10 81 -10 10
-10 5 -3 -22z"/>
<path d="M5100 4720 c0 -211 -3 -320 -10 -320 -10 0 -4 -42 10 -68 4 -8 8 148
9 347 1 199 0 361 -3 361 -3 0 -6 -144 -6 -320z"/>
<path d="M7411 4959 c-9 -21 -10 -34 -3 -41 6 -6 8 -33 5 -64 -3 -30 -2 -54 3
-54 5 0 9 43 10 95 0 52 0 95 -1 95 0 0 -6 -14 -14 -31z"/>
<path d="M5054 4720 c0 -140 2 -198 3 -127 2 70 2 184 0 255 -1 70 -3 12 -3
-128z"/>
<path d="M5070 4720 c0 -165 3 -249 10 -245 6 4 10 97 10 245 0 148 -4 241
-10 245 -7 4 -10 -80 -10 -245z"/>
<path d="M632 4820 c0 -14 2 -19 5 -12 2 6 2 18 0 25 -3 6 -5 1 -5 -13z"/>
<path d="M591 4767 c-8 -14 -18 -24 -23 -21 -4 3 -8 -4 -8 -16 0 -12 4 -19 9
-16 15 10 20 -47 10 -122 -6 -41 -8 -77 -5 -80 3 -3 7 8 7 24 1 19 4 12 9 -21
5 -27 6 -66 4 -85 l-4 -35 10 30 c5 16 7 47 3 68 -3 24 -1 47 7 63 7 13 10 27
7 31 -4 3 -7 -1 -7 -10 0 -9 -4 -17 -10 -17 -5 0 -10 19 -9 43 1 36 2 38 9 17
l8 -25 1 24 c1 17 5 21 17 17 12 -5 14 -1 8 17 -4 12 -11 24 -15 25 -12 5 -11
39 1 47 6 3 9 21 9 38 l-1 32 -8 -30 -7 -30 -4 29 -4 30 -14 -27z"/>
<path d="M7432 4720 c0 -19 2 -27 5 -17 2 9 2 25 0 35 -3 9 -5 1 -5 -18z"/>
<path d="M7412 4720 c0 -14 2 -19 5 -12 2 6 2 18 0 25 -3 6 -5 1 -5 -13z"/>
<path d="M7361 4638 c1 -18 3 -25 6 -15 10 38 18 14 14 -45 -3 -60 14 -163 30
-182 4 -5 3 9 -3 30 -6 22 -12 80 -13 130 -1 50 -5 96 -9 102 -14 22 -26 12
-25 -20z"/>
<path d="M7413 4586 c3 -32 1 -58 -5 -64 -8 -8 -7 -20 4 -41 13 -29 14 -25 14
64 -1 52 -5 95 -10 95 -5 0 -6 -24 -3 -54z"/>
<path d="M632 4540 c0 -14 2 -19 5 -12 2 6 2 18 0 25 -3 6 -5 1 -5 -13z"/>
<path d="M7363 4510 c0 -30 2 -43 4 -27 2 15 2 39 0 55 -2 15 -4 2 -4 -28z"/>
<path d="M627 4455 c3 -46 2 -57 -7 -45 -9 13 -10 12 -6 -5 15 -59 17 -80 7
-65 -14 20 -14 6 1 -42 9 -31 9 -41 -2 -51 -10 -10 -12 -8 -8 8 3 11 -1 26 -9
33 -16 15 -17 5 -2 -37 6 -17 15 -31 20 -31 13 0 11 -47 -2 -72 -7 -13 -7 -18
-1 -14 6 3 12 -2 15 -11 2 -10 4 65 4 167 0 102 -3 194 -8 205 -4 11 -5 -7 -2
-40z"/>
<path d="M7361 4425 c-1 -44 15 -64 23 -30 4 15 5 30 1 33 -3 3 -6 -3 -6 -14
-1 -12 -4 -7 -9 11 l-8 30 -1 -30z"/>
<path d="M587 4360 c3 -11 7 -20 9 -20 2 0 4 9 4 20 0 11 -4 20 -9 20 -5 0 -7
-9 -4 -20z"/>
<path d="M7380 4335 c0 -14 -3 -16 -8 -8 -5 8 -8 -2 -9 -25 0 -37 0 -37 9 -8
8 20 13 25 19 15 4 -8 3 -19 -3 -27 -6 -7 -10 -35 -9 -62 1 -27 -3 -51 -9 -55
-5 -3 -10 -16 -9 -28 0 -12 3 -16 6 -9 2 6 8 10 13 7 4 -3 8 5 8 18 0 33 8 89
16 113 3 11 0 36 -8 55 -11 24 -15 28 -16 14z"/>
<path d="M1630 4281 c0 -23 5 -41 10 -41 6 0 10 15 10 34 0 19 -4 38 -10 41
-6 4 -10 -10 -10 -34z"/>
<path d="M1662 4238 c-1 -42 -7 -80 -12 -83 -6 -4 -9 -14 -6 -23 3 -10 6 -34
8 -55 2 -32 4 -35 16 -23 15 15 27 130 12 121 -5 -3 -11 27 -13 67 l-3 73 -2
-77z"/>
<path d="M5090 4294 c0 -8 6 -17 14 -20 8 -3 12 -13 9 -22 -4 -13 -3 -14 5 -3
5 7 7 21 5 31 -6 23 -33 35 -33 14z"/>
<path d="M5065 4270 c-7 -12 2 -30 16 -30 5 0 9 9 9 20 0 21 -15 27 -25 10z"/>
<path d="M5128 4238 c-3 -7 -5 -26 -4 -43 1 -26 5 -30 31 -31 41 -1 85 -14 85
-26 0 -5 -4 -7 -9 -3 -10 6 -31 -25 -31 -44 0 -6 12 -11 28 -10 l27 0 -24 10
c-23 9 -24 10 -5 24 25 19 34 19 34 0 0 -17 16 -20 25 -5 4 6 11 8 16 4 6 -3
3 -12 -8 -20 -16 -13 -16 -13 -1 -8 11 4 20 0 24 -10 4 -11 13 -14 29 -10 19
5 22 2 20 -20 -2 -17 1 -23 10 -20 7 3 20 -3 30 -12 14 -15 18 -15 26 -3 10
16 11 11 13 -46 l1 -40 47 0 c26 -1 53 -6 59 -12 6 -6 18 -9 26 -6 20 8 32
-14 28 -46 -2 -14 -2 -20 1 -14 4 9 11 10 25 2 13 -7 25 -7 37 0 9 6 12 11 6
11 -6 0 -22 9 -35 21 -45 40 -109 80 -109 69 0 -6 -4 -9 -9 -5 -5 3 -12 1 -16
-5 -3 -5 -18 -10 -33 -10 l-27 1 25 12 c29 14 37 42 15 51 -10 4 -14 2 -9 -5
4 -7 1 -10 -7 -7 -8 3 -14 9 -14 14 0 19 -16 33 -32 27 -10 -4 -14 -2 -10 4 8
12 -53 59 -72 55 -7 -2 -10 1 -6 7 4 7 -1 8 -12 4 -10 -3 -15 -3 -11 2 4 4 3
14 -3 22 -9 10 -15 11 -26 2 -11 -9 -12 -9 -8 4 5 11 -4 19 -29 28 -19 7 -33
16 -30 21 3 4 -3 5 -12 1 -12 -4 -15 -3 -10 5 6 9 1 9 -19 0 -20 -9 -28 -9
-38 1 -9 10 -9 11 3 7 8 -3 22 -1 30 4 13 8 11 13 -11 36 -19 19 -28 22 -31
12z m28 -35 c-7 -7 -26 7 -26 19 0 6 6 6 15 -2 9 -7 13 -15 11 -17z m244 -163
c8 -5 11 -10 5 -10 -5 0 -17 5 -25 10 -8 5 -10 10 -5 10 6 0 17 -5 25 -10z
m75 -80 c3 -5 -1 -10 -9 -10 -9 0 -16 5 -16 10 0 6 4 10 9 10 6 0 13 -4 16
-10z m80 -30 c3 -6 -1 -7 -9 -4 -18 7 -21 14 -7 14 6 0 13 -4 16 -10z m89 -65
c11 -8 15 -15 10 -15 -6 0 -19 7 -30 15 -10 8 -14 14 -9 14 6 0 19 -6 29 -14z"/>
<path d="M1728 4102 c-3 -12 -12 -21 -19 -20 -7 2 -16 -13 -21 -36 -12 -54 -2
-58 11 -4 10 41 10 42 6 5 -2 -20 0 -35 4 -33 4 3 6 -17 3 -44 -4 -49 -4 -50
24 -51 16 -1 33 -1 37 0 4 1 3 -8 -3 -20 -7 -11 -9 -23 -6 -27 3 -3 6 0 6 7 0
7 4 10 9 7 5 -3 11 3 14 14 3 13 -1 21 -15 26 -13 4 -19 14 -18 32 3 43 1 54
-11 46 -7 -4 -9 0 -6 12 3 11 2 39 -2 64 -5 36 -8 40 -13 22z m-1 -59 c-3 -10
-5 -4 -5 12 0 17 2 24 5 18 2 -7 2 -21 0 -30z"/>
<path d="M5170 4065 c7 -8 17 -15 22 -15 5 0 3 7 -6 15 -8 8 -18 15 -22 15 -3
0 -1 -7 6 -15z"/>
<path d="M7307 4033 c-2 -27 0 -70 6 -98 l10 -50 14 40 c11 31 11 44 3 59 -10
16 -9 18 3 13 16 -6 25 21 19 61 -2 15 -10 22 -27 22 -20 0 -24 -6 -28 -47z
m20 -100 c-3 -10 -5 -2 -5 17 0 19 2 27 5 18 2 -10 2 -26 0 -35z"/>
<path d="M1661 4014 c0 -11 3 -14 6 -6 3 7 2 16 -1 19 -3 4 -6 -2 -5 -13z"/>
<path d="M7286 3955 c4 -57 -5 -151 -23 -240 -7 -30 -13 -39 -26 -37 -9 2 -18
-3 -19 -10 -1 -7 -5 16 -8 52 -6 52 -7 43 -5 -47 1 -62 5 -116 8 -120 4 -3 7
-1 7 6 0 7 4 10 9 6 5 -3 2 13 -6 35 -15 38 -15 42 0 58 16 15 17 15 17 -1 0
-9 -4 -17 -10 -17 -6 0 -5 -10 2 -26 12 -25 13 -24 35 42 13 37 20 77 17 87
-4 11 -2 17 3 14 6 -4 8 4 5 20 -3 15 -1 23 4 20 6 -3 10 2 11 11 1 9 4 31 7
47 3 17 3 21 0 10 -13 -45 -22 -34 -17 21 3 33 0 75 -5 94 -10 31 -10 29 -6
-25z"/>
<path d="M657 3987 c-8 -20 18 -135 34 -152 5 -5 5 3 -1 20 -6 19 -7 46 -1 75
l9 45 0 -60 c1 -145 26 -277 63 -321 6 -7 8 -19 4 -26 -4 -7 1 -4 10 7 17 20
17 20 11 -2 -4 -12 -3 -24 2 -27 4 -2 8 50 8 117 0 97 -1 109 -6 57 -4 -36 -7
-59 -8 -52 -1 7 -10 12 -19 10 -19 -3 -31 35 -40 130 -4 45 -3 51 11 46 19 -7
22 12 4 19 -10 4 -10 8 1 15 7 5 10 15 7 21 -12 19 -25 12 -29 -16 -2 -16 -5
2 -6 40 -1 52 -4 67 -16 67 -11 0 -15 -12 -17 -42 l-1 -43 -6 45 c-4 33 -8 40
-14 27z m128 -370 c-4 -15 -11 -24 -16 -21 -5 3 -5 13 1 25 7 13 7 19 0 19 -5
0 -10 -5 -10 -12 0 -6 -2 -9 -5 -7 -2 3 -2 15 2 28 5 19 8 21 20 8 9 -9 12
-23 8 -40z"/>
<path d="M750 3960 c0 -22 5 -40 10 -40 6 0 10 18 10 40 0 22 -4 40 -10 40 -5
0 -10 -18 -10 -40z"/>
<path d="M7233 3960 c0 -22 3 -40 8 -40 5 0 9 18 9 40 0 52 -15 52 -17 0z"/>
<path d="M7262 3980 c0 -14 2 -19 5 -12 2 6 2 18 0 25 -3 6 -5 1 -5 -13z"/>
<path d="M1803 3874 c-7 -3 -9 -12 -6 -20 8 -20 18 -17 20 6 1 11 1 20 0 19
-1 0 -7 -3 -14 -5z"/>
<path d="M1830 3829 c0 -23 -24 -69 -35 -69 -6 0 -9 -17 -7 -41 l4 -40 59 5
c60 4 89 -9 73 -35 -4 -8 -3 -9 5 -5 7 5 9 16 5 29 -6 19 -5 20 10 8 9 -8 14
-21 11 -32 -4 -12 1 -19 16 -24 17 -6 19 -9 8 -17 -11 -8 -10 -9 4 -4 17 5 19
2 21 -43 1 -13 8 -26 16 -28 13 -4 13 -3 1 5 -12 9 -13 13 -1 27 11 14 9 20
-19 49 -17 18 -29 35 -26 38 4 3 -11 23 -33 44 -22 22 -43 47 -49 57 -8 16
-11 16 -33 -5 -18 -17 -22 -18 -17 -5 4 11 1 17 -8 17 -19 0 -19 11 1 36 15
19 15 18 9 -3 -6 -23 9 -41 20 -23 4 6 -3 25 -14 43 -12 18 -21 25 -21 16z
m60 -87 c0 -4 -6 -14 -12 -21 -11 -11 -9 -12 8 -7 13 4 26 1 34 -9 7 -9 8 -15
2 -15 -6 0 -13 6 -15 13 -4 9 -8 8 -16 -3 -10 -13 -12 -13 -21 0 -9 13 -11 13
-20 0 -6 -10 -10 -11 -10 -2 0 13 30 50 43 51 4 1 7 -3 7 -7z"/>
<path d="M5689 3818 c-1 -2 -2 -14 -3 -28 -1 -18 3 -26 19 -27 32 -4 49 -8 63
-17 18 -11 11 16 -8 32 -12 10 -10 10 13 2 15 -5 27 -8 27 -6 0 9 -71 48 -77
42 -4 -3 -1 -6 5 -6 25 0 11 -16 -15 -17 -16 -1 -22 1 -15 4 14 6 16 23 2 23
-5 0 -11 -1 -11 -2z"/>
<path d="M5600 3745 c0 -25 14 -34 24 -16 8 12 -3 41 -15 41 -5 0 -9 -11 -9
-25z"/>
<path d="M5837 3750 c6 -7 9 -20 6 -29 -3 -11 -2 -12 4 -4 10 14 38 0 38 -19
0 -7 9 -13 20 -13 15 0 20 -6 19 -27 -1 -15 2 -25 7 -22 4 2 6 11 2 19 -6 18
3 19 21 3 11 -11 9 -17 -11 -34 l-24 -21 28 2 c35 2 53 12 52 28 0 9 -2 9 -6
0 -2 -7 -9 -13 -15 -13 -6 0 -8 7 -5 15 8 18 -51 65 -71 57 -9 -3 -13 -1 -9 5
4 6 -10 23 -31 38 -20 16 -32 22 -25 15z"/>
<path d="M5850 3695 c-8 -9 -8 -15 -2 -15 12 0 26 19 19 26 -2 2 -10 -2 -17
-11z"/>
<path d="M5076 3657 c-11 -42 -7 -137 7 -137 8 0 13 23 14 75 2 73 -9 106 -21
62z"/>
<path d="M6352 3640 c-1 -22 2 -40 8 -40 5 0 10 18 10 40 0 52 -14 52 -18 0z"/>
<path d="M2033 3605 c27 -26 51 -44 54 -41 4 3 4 7 2 9 -2 1 -26 20 -54 41
l-50 38 48 -47z"/>
<path d="M6312 3620 c0 -14 2 -19 5 -12 2 6 2 18 0 25 -3 6 -5 1 -5 -13z"/>
<path d="M1929 3630 c0 -3 -2 -13 -4 -22 -2 -10 0 -20 5 -23 12 -8 19 20 9 36
-5 8 -9 12 -10 9z"/>
<path d="M6014 3622 c4 -7 3 -12 -2 -12 -5 0 -9 -7 -9 -15 0 -8 7 -15 15 -15
9 0 12 6 8 17 -4 9 5 4 20 -12 22 -24 24 -32 15 -47 -6 -10 -7 -18 -2 -18 6 0
13 5 16 10 4 7 12 7 25 0 24 -13 53 -13 45 0 -3 5 -13 6 -22 3 -10 -4 -14 -2
-10 4 9 14 -19 43 -39 43 -8 0 -14 3 -14 8 0 4 -12 16 -27 26 -14 11 -23 14
-19 8z m91 -80 c-3 -3 -11 0 -18 7 -9 10 -8 11 6 5 10 -3 15 -9 12 -12z"/>
<path d="M4968 3580 c-10 -9 -18 -21 -18 -25 0 -5 5 -4 12 3 7 7 18 12 26 12
12 0 12 -3 2 -15 -13 -16 -6 -35 15 -35 9 0 12 6 9 15 -4 8 -1 15 4 15 6 0 13
-8 15 -17 3 -10 4 0 3 23 -1 36 -4 41 -26 41 -14 0 -33 -8 -42 -17z"/>
<path d="M5967 3573 c-12 -11 -8 -23 8 -23 8 0 15 7 15 15 0 16 -12 20 -23 8z"/>
<path d="M2030 3560 c0 -5 7 -10 16 -10 8 0 12 5 9 10 -3 6 -10 10 -16 10 -5
0 -9 -4 -9 -10z"/>
<path d="M2084 3552 c-11 -10 -26 -21 -34 -24 -8 -3 4 -5 27 -4 23 1 48 7 55
14 9 9 9 12 -4 12 -9 0 -18 5 -20 10 -2 6 -12 3 -24 -8z m36 -17 c0 -2 -9 -3
-19 -2 -11 0 -18 5 -15 9 4 6 34 0 34 -7z"/>
<path d="M6030 3560 c0 -5 5 -10 11 -10 5 0 7 5 4 10 -3 6 -8 10 -11 10 -2 0
-4 -4 -4 -10z"/>
<path d="M2147 3533 c-7 -12 14 -23 41 -23 14 0 15 2 2 9 -8 6 -17 8 -21 5 -4
-2 -9 1 -11 8 -3 8 -6 9 -11 1z"/>
<path d="M4924 3529 c-2 -4 0 -10 5 -13 11 -7 41 3 41 14 0 10 -40 9 -46 -1z"/>
<path d="M5920 3530 c0 -5 5 -10 10 -10 6 0 10 5 10 10 0 6 -4 10 -10 10 -5 0
-10 -4 -10 -10z"/>
<path d="M780 3525 c0 -5 5 -17 10 -25 5 -8 10 -10 10 -5 0 6 -5 17 -10 25 -5
8 -10 11 -10 5z"/>
<path d="M6018 3523 c7 -3 16 -2 19 1 4 3 -2 6 -13 5 -11 0 -14 -3 -6 -6z"/>
<path d="M821 3494 c-17 -20 -20 -29 -11 -34 7 -4 9 -13 5 -20 -4 -7 -1 -10
10 -8 10 2 20 -3 22 -10 3 -6 -1 -10 -9 -9 -7 2 -10 2 -6 0 4 -2 4 -12 1 -21
-5 -14 -3 -13 9 2 19 24 28 10 25 -37 -2 -20 0 -34 5 -31 19 12 7 72 -22 108
-25 32 -27 41 -17 57 19 31 47 24 47 -11 0 -16 -5 -30 -11 -30 -5 0 -8 -3 -5
-8 2 -4 25 -6 50 -4 l46 4 0 39 c0 38 -14 48 -32 24 -5 -6 -8 -5 -8 3 0 7 -14
12 -38 12 -29 0 -44 -6 -61 -26z"/>
<path d="M6170 3506 c21 -20 70 -25 70 -7 0 4 -11 6 -24 4 -13 -3 -27 0 -30 6
-4 6 -12 11 -19 11 -7 0 -6 -5 3 -14z"/>
<path d="M7137 3513 c25 -5 33 -23 29 -70 -2 -18 1 -33 6 -33 8 0 12 16 9 34
-1 5 4 13 10 17 10 6 10 11 -2 25 -12 16 -12 17 3 11 11 -4 15 -2 12 6 -2 7
-23 13 -47 13 -23 1 -32 -1 -20 -3z"/>
<path d="M2210 3500 c0 -5 5 -10 10 -10 6 0 10 5 10 10 0 6 -4 10 -10 10 -5 0
-10 -4 -10 -10z"/>
<path d="M4872 3490 c-31 -17 -32 -19 -15 -30 15 -9 13 -10 -14 -6 -21 3 -33
1 -33 -5 0 -7 14 -10 35 -7 30 3 34 1 37 -21 3 -21 9 -26 40 -29 l38 -3 -2 40
c-1 38 -3 40 -18 26 -13 -12 -23 -13 -44 -6 -24 10 -37 31 -18 31 5 0 17 7 28
15 27 20 6 18 -34 -5z"/>
<path d="M2170 3490 c20 -13 33 -13 25 0 -3 6 -14 10 -23 10 -15 0 -15 -2 -2
-10z"/>
<path d="M2235 3485 c-21 -10 -24 -14 -11 -15 13 0 16 -5 12 -16 -5 -14 -4
-15 9 -4 9 8 25 10 42 5 31 -8 2445 -7 2453 1 2 3 -540 4 -1206 2 -966 -2
-1210 0 -1207 10 3 7 -3 12 -13 12 -16 0 -17 -2 -4 -11 12 -8 11 -9 -5 -6 -11
2 -19 8 -18 15 2 7 -4 9 -14 5 -11 -4 -14 -3 -9 5 8 14 9 14 -29 -3z"/>
<path d="M850 3474 c0 -8 5 -12 10 -9 6 3 10 10 10 16 0 5 -4 9 -10 9 -5 0
-10 -7 -10 -16z"/>
<path d="M4916 3481 c-4 -7 -5 -15 -2 -18 9 -9 19 4 14 18 -4 11 -6 11 -12 0z"/>
<path d="M7126 3475 c4 -8 1 -22 -6 -30 -15 -18 1 -20 18 -3 17 17 15 48 -3
48 -9 0 -12 -6 -9 -15z"/>
<path d="M6160 3472 c0 -4 14 -13 30 -19 17 -6 30 -7 30 -2 0 5 -12 14 -26 19
-31 12 -34 12 -34 2z"/>
<path d="M2185 3450 c-8 -13 5 -13 25 0 13 8 13 10 -2 10 -9 0 -20 -4 -23 -10z"/>
<path d="M7133 3414 c-13 -20 -14 -30 -5 -44 6 -10 9 -28 6 -41 -4 -19 -2 -17
9 6 15 32 12 68 -4 43 -7 -10 -9 -10 -9 0 0 7 7 24 16 37 9 14 14 25 10 25 -3
0 -13 -12 -23 -26z"/>
<path d="M2087 3413 c-4 -3 -7 -17 -7 -30 0 -21 4 -24 28 -21 21 2 28 9 30 31
3 23 0 27 -21 27 -13 0 -27 -3 -30 -7z"/>
<path d="M2360 3408 c-20 -7 -22 -11 -10 -18 23 -14 50 -12 50 4 0 21 -11 25
-40 14z"/>
<path d="M7042 3390 c0 -19 2 -27 5 -17 2 9 2 25 0 35 -3 9 -5 1 -5 -18z"/>
<path d="M905 3390 c-3 -5 -1 -10 4 -10 6 0 11 5 11 10 0 6 -2 10 -4 10 -3 0
-8 -4 -11 -10z"/>
<path d="M2425 3390 c-14 -6 1 -9 48 -9 37 -1 70 -1 74 -2 4 0 9 4 11 10 4 13
-103 14 -133 1z"/>
<path d="M847 3377 c-3 -8 -2 -20 3 -26 5 -9 8 -4 8 13 0 29 -3 32 -11 13z"/>
<path d="M945 3369 c-4 -6 -13 -8 -21 -5 -15 6 -18 -3 -8 -28 3 -9 12 -16 20
-16 18 0 17 -20 -1 -44 -17 -22 -20 -86 -5 -86 5 0 6 7 3 17 -4 11 -3 14 5 9
15 -9 16 -36 1 -36 -5 0 -7 -5 -3 -11 5 -8 10 -6 16 5 13 22 1 69 -14 60 -8
-5 -9 -2 -5 10 4 10 7 21 7 24 0 4 4 1 9 -6 12 -20 12 47 0 70 -7 14 -7 24 2
34 6 8 9 14 6 14 -3 0 -9 -5 -12 -11z"/>
<path d="M2245 3370 c-8 -13 8 -18 29 -10 19 6 19 7 -2 12 -12 4 -24 2 -27 -2z"/>
<path d="M7060 3351 c0 -18 12 -41 19 -36 8 4 9 1 12 -54 2 -33 2 -33 15 -10
16 29 18 69 4 69 -5 0 -10 9 -10 20 0 13 -7 20 -20 20 -11 0 -20 -4 -20 -9z"/>
<path d="M7037 3300 c-3 -11 -3 -29 0 -41 5 -16 8 -18 15 -7 11 14 7 -10 -7
-47 l-8 -20 16 20 c14 17 16 18 17 3 0 -9 -4 -20 -10 -23 -5 -3 -10 -12 -10
-18 0 -7 7 -3 15 8 15 18 16 78 2 92 -4 3 -7 14 -7 24 0 26 -17 32 -23 9z"/>
<path d="M881 3285 c0 -5 7 -21 15 -35 8 -14 13 -18 10 -9 -2 9 1 22 7 29 9
10 8 12 -5 7 -9 -3 -19 -1 -22 6 -2 7 -5 8 -5 2z"/>
<path d="M7010 3181 c0 -20 13 -35 23 -25 7 8 -4 44 -14 44 -5 0 -9 -9 -9 -19z"/>
<path d="M1065 3140 c-3 -5 -4 -10 0 -10 3 0 1 -9 -5 -20 -14 -25 5 -27 32 -3
13 12 18 13 18 3 0 -7 3 -10 6 -7 4 4 1 13 -6 22 -11 14 -14 13 -26 -2 -12
-16 -13 -16 -7 5 6 23 -1 30 -12 12z"/>
<path d="M6902 3134 c-12 -8 -22 -21 -22 -27 0 -8 3 -8 9 1 6 10 10 10 21 -3
16 -19 41 -20 34 0 -4 8 -10 13 -14 10 -5 -3 -12 0 -16 6 -4 7 -3 9 4 5 6 -3
13 -2 16 3 11 17 -10 20 -32 5z"/>
<path d="M978 3088 c13 -23 18 -25 25 -13 4 8 6 19 2 24 -3 5 1 11 7 14 7 2
-1 4 -19 3 l-31 -1 16 -27z m16 6 c3 -8 2 -12 -4 -9 -6 3 -10 10 -10 16 0 14
7 11 14 -7z"/>
<path d="M6963 3083 c2 -25 8 -37 19 -39 17 -2 15 18 -4 43 -6 7 -7 17 -3 23
3 5 2 10 -4 10 -5 0 -9 -16 -8 -37z"/>
<path d="M6999 3101 c5 -9 6 -22 3 -30 -3 -9 0 -11 7 -7 7 5 9 17 5 28 -4 13
-2 18 4 14 6 -3 13 -3 16 2 2 4 -6 8 -19 8 -18 0 -22 -4 -16 -15z"/>
<path d="M1018 3077 c-14 -30 -14 -36 1 -64 l16 -32 22 34 c19 29 20 33 5 28
-9 -3 -23 -10 -29 -16 -14 -10 -18 4 -6 17 7 6 14 66 9 66 -1 0 -9 -15 -18
-33z m3 -30 c-10 -9 -11 -8 -5 6 3 10 9 15 12 12 3 -3 0 -11 -7 -18z"/>
<path d="M6940 3020 c26 -36 26 -36 41 -7 6 12 8 19 4 15 -5 -4 -13 -4 -19 1
-6 4 -19 11 -29 14 -16 6 -16 4 3 -23z"/>
<path d="M1104 2986 c0 -14 4 -22 8 -20 4 3 8 14 8 25 0 10 -4 19 -8 19 -4 0
-8 -11 -8 -24z"/>
<path d="M6880 2991 c0 -11 4 -22 8 -25 4 -2 8 6 8 20 0 13 -4 24 -8 24 -4 0
-8 -9 -8 -19z"/>
<path d="M1067 2932 c16 -29 19 -30 31 -15 8 12 12 13 12 3 0 -7 2 -11 5 -8 3
3 3 13 -1 22 -6 15 -7 15 -21 -1 -13 -17 -14 -16 -9 7 3 14 3 19 0 12 -5 -10
-9 -10 -20 -1 -11 9 -9 3 3 -19z"/>
<path d="M6916 2940 c5 -23 4 -24 -9 -7 -14 16 -15 16 -21 1 -4 -9 -4 -19 -1
-22 3 -3 5 1 5 8 0 10 4 9 13 -3 11 -15 14 -14 30 15 12 22 14 28 3 19 -11 -9
-15 -9 -20 1 -3 7 -3 2 0 -12z"/>
<path d="M1107 2888 c-3 -12 17 -54 33 -68 3 -3 16 -22 29 -42 12 -21 24 -38
25 -38 5 0 0 49 -6 55 -4 4 -2 17 4 30 7 16 7 28 0 41 -10 17 -12 16 -25 -15
l-14 -33 -20 28 c-11 16 -18 35 -16 42 3 6 2 12 0 12 -3 0 -7 -6 -10 -12z m77
-62 c-3 -9 -10 -16 -15 -16 -5 0 -4 9 3 20 14 22 21 20 12 -4z m4 -51 c-3 -3
-9 2 -12 12 -6 14 -5 15 5 6 7 -7 10 -15 7 -18z"/>
<path d="M6805 2861 c-5 -23 -2 -37 9 -49 11 -13 12 -21 5 -32 -9 -12 -10 -11
-4 5 3 11 2 16 -2 11 -7 -7 -13 -56 -7 -56 8 0 45 72 40 77 -3 4 -6 3 -6 -2 0
-4 -7 -2 -15 5 -8 7 -15 17 -15 23 0 6 7 2 15 -9 19 -25 20 1 1 35 l-14 25 -7
-33z"/>
<path d="M6874 2883 c-7 -2 -10 -14 -8 -26 5 -22 5 -22 -5 1 -16 34 -31 27
-18 -8 6 -16 14 -30 17 -30 3 1 14 16 26 34 19 30 16 38 -12 29z"/>
<path d="M1137 2863 c7 -17 20 -17 26 1 4 10 0 14 -12 13 -11 -1 -17 -7 -14
-14z"/>
<path d="M1260 2865 c0 -8 5 -15 10 -15 6 0 10 7 10 15 0 8 -4 15 -10 15 -5 0
-10 -7 -10 -15z"/>
<path d="M1261 2833 c0 -5 4 -17 9 -28 8 -18 9 -17 9 8 1 15 -3 27 -9 27 -5 0
-10 -3 -9 -7z"/>
<path d="M6721 2795 c2 -43 -1 -75 -8 -74 -22 4 -43 -2 -43 -11 0 -14 43 -13
58 2 14 14 15 54 1 83 l-9 20 1 -20z"/>
<path d="M1280 2720 c-12 -8 -12 -10 3 -16 9 -3 29 -3 45 1 25 7 25 8 7 15
-27 11 -37 11 -55 0z"/>
<path d="M1218 2713 c6 -3 12 -11 12 -19 0 -8 5 -14 10 -14 6 0 14 -8 17 -17
13 -36 55 -82 69 -76 8 3 14 0 14 -6 0 -6 -4 -11 -9 -11 -10 0 13 -28 136
-164 172 -192 247 -251 211 -169 -13 30 -26 43 -43 43 -6 0 -6 -3 0 -8 11 -7
45 -58 45 -66 0 -2 -17 12 -38 33 -25 24 -35 40 -28 49 4 6 5 12 0 13 -34 3
-51 13 -90 56 -34 37 -43 53 -39 71 5 20 3 22 -19 16 -13 -3 -27 -1 -30 5 -4
6 -2 11 4 11 6 0 8 5 4 12 -4 7 -8 28 -8 48 0 30 -3 35 -24 36 -23 2 -23 2 -3
-13 12 -8 21 -23 21 -33 0 -20 -17 -36 -28 -25 -3 3 0 10 7 15 12 7 12 11 -2
24 -8 9 -19 16 -23 16 -5 0 -3 -5 4 -12 20 -20 13 -32 -8 -13 -11 10 -17 22
-14 27 3 5 -6 27 -20 49 -15 21 -22 39 -17 39 6 0 15 -8 20 -17 6 -10 11 -13
11 -7 0 16 -27 37 -39 30 -6 -4 -7 -14 -4 -23 6 -15 5 -16 -9 -3 -9 8 -14 18
-11 23 2 4 -1 6 -9 5 -8 -2 -13 7 -14 22 -1 41 -13 58 -42 57 -15 0 -21 -2
-14 -4z m51 -37 c-3 -3 -11 5 -18 17 -13 21 -12 21 5 5 10 -10 16 -20 13 -22z"/>
<path d="M6731 2702 c-6 -10 -7 -28 -4 -40 4 -16 1 -22 -11 -22 -11 0 -14 -5
-10 -12 5 -7 2 -9 -8 -5 -11 4 -15 -1 -15 -19 0 -13 1 -24 2 -24 2 0 17 19 34
42 22 30 28 44 19 49 -9 6 -7 13 6 28 11 12 14 21 8 21 -6 0 -16 -8 -21 -18z"/>
<path d="M6761 2698 c-14 -23 -14 -23 8 -4 22 20 25 26 13 26 -4 0 -13 -10
-21 -22z"/>
<path d="M1415 2680 c-7 -12 2 -30 16 -30 5 0 9 9 9 20 0 21 -15 27 -25 10z"/>
<path d="M6562 2666 c1 -10 8 -17 13 -17 15 1 12 24 -3 29 -9 3 -13 -2 -10
-12z"/>
<path d="M6642 2628 c-8 -8 -9 -15 -1 -25 9 -10 7 -21 -5 -46 -15 -31 -16 -31
-22 -9 -5 17 -9 20 -20 11 -7 -6 -18 -8 -24 -4 -15 9 -22 -17 -12 -45 11 -30
3 -70 -14 -70 -8 0 -14 5 -14 10 0 6 5 10 11 10 5 0 7 5 4 11 -10 15 -36 -26
-29 -44 3 -10 -3 -17 -20 -21 -15 -4 -26 -14 -26 -23 0 -14 3 -14 22 3 22 19
23 19 8 -1 -21 -28 -67 -75 -74 -75 -8 0 16 42 29 53 6 5 4 7 -5 4 -8 -2 -20
-13 -26 -25 -6 -12 -14 -19 -17 -16 -4 4 -4 -4 -2 -16 3 -17 -6 -32 -37 -61
-23 -21 -45 -36 -50 -33 -4 3 -8 0 -8 -5 0 -6 -9 -20 -21 -32 l-20 -20 -6 20
c-3 12 -12 21 -19 21 -10 0 -13 -7 -8 -24 5 -22 3 -23 -35 -21 -22 1 -38 -2
-35 -6 3 -5 17 -7 32 -3 26 5 26 5 7 -11 -11 -8 -25 -13 -32 -11 -7 3 -13 2
-13 -3 0 -18 14 -18 48 1 l37 20 -35 -30 c-19 -17 -38 -28 -42 -26 -9 6 -11
-10 -2 -19 6 -5 20 5 103 78 109 94 356 347 315 322 -8 -4 -12 1 -11 16 1 12
-2 33 -6 47 -4 14 -4 19 -1 12 3 -6 10 -10 15 -6 5 3 16 -1 24 -10 8 -8 11
-17 6 -20 -5 -4 -11 0 -14 6 -2 8 -8 9 -13 4 -5 -5 -4 -11 4 -13 6 -3 10 -9 6
-14 -3 -5 -2 -9 3 -9 4 0 21 18 37 40 17 22 35 40 40 40 6 0 5 4 -3 9 -13 8
-13 12 0 27 12 16 12 17 -4 11 -15 -6 -16 -4 -7 13 12 22 1 27 -18 8z m-377
-478 c-3 -5 -11 -10 -16 -10 -6 0 -7 5 -4 10 3 6 11 10 16 10 6 0 7 -4 4 -10z"/>
<path d="M1504 2522 c4 -3 14 -7 22 -8 9 -1 13 0 10 4 -4 3 -14 7 -22 8 -9 1
-13 0 -10 -4z"/>
<path d="M6459 2505 c-1 -6 -1 -18 0 -27 1 -10 -3 -18 -10 -18 -9 0 -8 -4 1
-15 7 -8 17 -12 23 -8 6 4 8 0 4 -11 -4 -10 -3 -15 3 -11 12 7 3 74 -11 90 -6
6 -9 6 -10 0z"/>
<path d="M1486 2489 c4 -8 -1 -9 -17 -5 -14 3 -11 0 9 -9 34 -16 38 -25 22
-54 -7 -14 -5 -23 10 -36 18 -16 20 -17 20 -2 0 10 -5 17 -10 17 -13 0 -2 73
11 78 17 7 -2 22 -27 22 -16 0 -23 -4 -18 -11z"/>
<path d="M6420 2480 c0 -19 3 -21 12 -12 9 9 9 15 0 24 -9 9 -12 7 -12 -12z"/>
<path d="M6490 2469 c0 -5 5 -7 10 -4 6 3 10 8 10 11 0 2 -4 4 -10 4 -5 0 -10
-5 -10 -11z"/>
<path d="M1537 2433 c3 -13 10 -23 17 -23 6 0 4 -5 -4 -11 -12 -8 -10 -9 7 -4
18 5 22 3 17 -9 -3 -9 -2 -16 4 -16 12 0 21 30 14 49 -4 11 -6 11 -13 0 -6
-10 -12 -7 -28 12 -20 24 -20 24 -14 2z"/>
<path d="M1600 2386 c0 -8 -2 -20 -5 -28 -4 -10 5 -12 40 -10 40 4 45 7 45 28
0 21 -4 24 -40 24 -28 0 -40 -4 -40 -14z"/>
<path d="M1742 2370 c0 -19 2 -27 5 -17 2 9 2 25 0 35 -3 9 -5 1 -5 -18z"/>
<path d="M6320 2376 c0 -21 5 -24 45 -28 35 -2 44 0 40 10 -3 8 -5 20 -5 28 0
10 -12 14 -40 14 -36 0 -40 -3 -40 -24z"/>
<path d="M6410 2386 c0 -9 5 -16 10 -16 6 0 10 4 10 9 0 6 -4 13 -10 16 -5 3
-10 -1 -10 -9z"/>
<path d="M6240 2364 c0 -14 4 -23 10 -19 6 3 10 15 10 26 0 10 -4 19 -10 19
-5 0 -10 -12 -10 -26z"/>
<path d="M1560 2341 c0 -13 28 -33 33 -23 3 4 -3 13 -14 20 -10 7 -19 8 -19 3z"/>
<path d="M1632 2301 c16 -11 23 -12 26 -3 7 22 20 12 20 -15 0 -15 5 -29 11
-31 6 -2 9 -8 5 -13 -3 -5 0 -9 5 -9 6 0 11 5 11 10 0 6 10 10 23 10 15 0 18
-3 9 -9 -10 -6 -10 -10 1 -19 12 -10 14 -3 16 43 l2 55 -75 -2 c-71 -1 -74 -2
-54 -17z"/>
<path d="M6240 2282 c0 -36 2 -39 25 -35 15 3 31 -1 41 -12 17 -16 18 -16 30
1 8 11 18 25 24 32 13 14 5 16 -18 3 -14 -7 -17 -4 -18 15 -2 20 2 24 17 19
10 -4 26 -2 34 3 11 5 -9 9 -59 10 l-76 2 0 -38z"/>
<path d="M6380 2290 c0 -5 5 -10 10 -10 6 0 10 5 10 10 0 6 -4 10 -10 10 -5 0
-10 -4 -10 -10z"/>
<path d="M1780 2230 c0 -5 13 -10 29 -10 17 0 33 5 36 10 4 6 -8 10 -29 10
-20 0 -36 -4 -36 -10z"/>
<path d="M1900 2185 c0 -8 5 -15 10 -15 6 0 10 7 10 15 0 8 -4 15 -10 15 -5 0
-10 -7 -10 -15z"/>
<path d="M1700 2175 c7 -9 15 -13 17 -11 7 7 -7 26 -19 26 -6 0 -6 -6 2 -15z"/>
<path d="M1742 2174 c2 -9 15 -26 31 -38 l27 -20 20 20 20 20 -32 1 c-57 2
-60 3 -54 18 3 8 1 15 -5 15 -6 0 -9 -7 -7 -16z m65 -30 c-3 -3 -12 -4 -19 -1
-8 3 -5 6 6 6 11 1 17 -2 13 -5z"/>
<path d="M1755 2125 c17 -15 42 -38 57 -51 14 -13 28 -24 31 -24 9 0 2 25 -8
29 -6 2 -26 16 -45 30 -48 38 -71 48 -35 16z"/>
<path d="M1821 2121 c-8 -6 -9 -11 -3 -15 6 -3 14 -1 17 5 9 14 2 20 -14 10z"/>
<path d="M1890 2076 c0 -2 7 -9 15 -16 13 -11 14 -10 9 4 -5 14 -24 23 -24 12z"/>
<path d="M6050 2070 c0 -5 5 -10 11 -10 6 0 19 -10 28 -22 21 -25 51 -19 48
10 0 11 -6 18 -13 15 -7 -3 -10 -11 -7 -19 6 -17 -13 -19 -23 -2 -4 6 1 17 11
25 16 11 16 13 3 13 -9 0 -19 -6 -21 -12 -4 -10 -6 -10 -6 0 -1 14 -31 17 -31
2z"/>
<path d="M1863 2052 c0 -9 14 -28 30 -42 43 -36 51 -40 67 -30 11 7 9 13 -11
28 -19 16 -27 18 -38 9 -12 -10 -14 -9 -8 5 4 12 2 15 -9 11 -10 -3 -12 0 -9
10 4 8 0 17 -8 20 -8 3 -14 -1 -14 -11z m87 -68 c0 -2 -9 0 -20 6 -11 6 -20
13 -20 16 0 2 9 0 20 -6 11 -6 20 -13 20 -16z"/>
<path d="M2030 2030 c0 -5 -8 -7 -17 -4 -13 4 -14 3 -5 -3 7 -6 25 -9 39 -8
35 1 43 25 9 25 -14 0 -26 -4 -26 -10z"/>
<path d="M5922 2028 c5 -15 52 -18 70 -5 9 6 8 7 -4 3 -10 -3 -18 -1 -18 4 0
6 -12 10 -26 10 -16 0 -24 -5 -22 -12z"/>
<path d="M1983 1986 c-20 -21 -21 -25 -8 -36 9 -7 18 -10 22 -6 3 3 1 6 -6 6
-8 0 -7 9 4 30 19 36 17 37 -12 6z"/>
<path d="M6016 1985 c-10 -7 -15 -18 -12 -23 9 -15 -20 -22 -55 -15 -27 5 -30
3 -27 -13 3 -13 11 -18 28 -16 24 2 24 1 -5 -16 -16 -10 -38 -17 -48 -14 -17
4 -17 5 0 18 10 7 13 14 6 14 -6 0 -15 -4 -18 -10 -3 -5 -14 -10 -23 -10 -15
0 -15 2 -2 11 12 8 12 10 1 7 -8 -2 -15 -12 -17 -23 -1 -10 -8 -21 -14 -25 -8
-5 -7 -12 5 -23 13 -13 20 -14 40 -5 14 6 25 15 25 20 0 5 -4 6 -10 3 -5 -3
-10 -1 -10 4 0 6 10 10 23 9 33 -3 166 99 150 115 -9 10 -15 8 -37 -8z m34 0
c0 -2 -10 -10 -22 -16 -21 -11 -22 -11 -9 4 13 16 31 23 31 12z m-182 -109
c-10 -7 -18 -16 -18 -19 0 -4 8 -4 18 -1 14 5 15 4 2 -5 -8 -5 -18 -7 -23 -2
-12 12 3 41 22 41 14 -1 14 -2 -1 -14z"/>
<path d="M2055 1927 c-5 -11 -14 -16 -24 -13 -20 7 15 -21 44 -35 17 -9 17 -7
-3 10 -13 11 -18 21 -11 23 7 2 10 11 7 19 -5 11 -7 10 -13 -4z"/>
<path d="M2204 1919 c-10 -17 23 -46 37 -32 7 7 9 19 6 27 -7 18 -33 21 -43 5z"/>
<path d="M5756 1921 c-7 -11 3 -41 14 -41 13 0 32 29 25 40 -8 12 -32 13 -39
1z"/>
<path d="M2098 1908 c5 -7 8 -22 6 -34 -5 -30 39 -50 61 -27 12 11 13 18 5 23
-6 4 -13 15 -14 25 -2 11 -9 21 -17 23 -11 3 -11 1 1 -7 13 -9 13 -11 -2 -11
-9 0 -20 5 -23 10 -3 6 -11 10 -17 10 -7 0 -7 -4 0 -12z m56 -35 c10 -25 -7
-35 -30 -17 -18 15 -18 15 4 4 26 -13 29 -3 5 16 -16 12 -16 13 -2 14 9 0 20
-8 23 -17z"/>
<path d="M2195 1833 c11 -3 25 -10 30 -15 7 -7 3 -8 -12 -4 -12 4 -24 2 -28
-3 -4 -7 1 -8 11 -4 12 4 15 3 10 -5 -5 -8 -1 -10 10 -5 11 4 15 3 10 -5 -3
-6 -3 -13 2 -16 12 -7 10 48 -2 56 -6 4 -20 7 -31 7 l-20 -1 20 -5z"/>
<path d="M5769 1838 c-6 -12 -3 -66 3 -62 5 3 5 10 2 16 -5 8 -1 9 10 5 11 -5
15 -3 10 5 -5 8 -2 9 10 5 10 -4 15 -3 11 4 -4 5 -15 7 -26 4 -10 -4 -19 -2
-19 4 0 5 8 12 18 14 16 4 16 5 0 6 -10 0 -19 0 -19 -1z"/>
<path d="M5687 1762 c-4 -6 -15 -9 -25 -6 -9 3 -6 -1 8 -9 17 -11 30 -12 42
-6 21 12 24 23 4 16 -8 -3 -16 -1 -19 6 -2 8 -5 8 -10 -1z"/>
<path d="M2286 1747 c27 -15 65 -18 83 -6 12 8 10 8 -8 3 -14 -3 -21 -2 -18 3
4 6 -11 10 -34 10 -34 0 -38 -2 -23 -10z"/>
<path d="M5630 1740 c11 -7 11 -10 2 -10 -7 0 -10 -5 -6 -11 4 -7 1 -10 -7 -7
-8 3 -13 10 -12 15 3 15 -89 -1 -120 -21 -15 -10 -30 -16 -34 -12 -3 3 -1 6 6
6 7 0 9 5 5 11 -5 8 -10 6 -16 -5 -20 -35 21 -50 45 -16 8 11 17 17 20 13 14
-13 6 -21 -32 -37 -31 -12 -39 -20 -36 -36 2 -11 0 -20 -6 -20 -5 0 -9 5 -9
10 0 6 -16 10 -35 10 -19 0 -35 -4 -35 -10 0 -5 9 -10 21 -10 15 0 19 -5 15
-15 -3 -8 -1 -15 4 -15 6 0 10 4 10 9 0 5 13 11 29 14 23 5 29 11 26 27 -3 17
0 19 22 14 20 -5 24 -4 18 6 -6 10 -2 11 16 7 13 -3 31 -1 39 4 12 9 10 10 -7
6 -13 -3 -23 -1 -23 4 0 5 18 9 41 9 28 0 38 4 33 12 -4 6 -3 8 4 4 6 -3 25 2
43 13 l33 20 -28 11 c-34 13 -46 13 -26 0z m-33 -26 c-3 -3 -12 -4 -19 -1 -8
3 -5 6 6 6 11 1 17 -2 13 -5z"/>
<path d="M2370 1724 c-14 -8 -17 -13 -8 -10 11 3 15 0 12 -7 -5 -14 153 -94
174 -89 9 2 11 -1 6 -9 -5 -9 -2 -10 10 -6 10 4 19 1 22 -8 4 -8 11 -15 16
-15 6 0 5 6 -2 15 -11 13 -8 15 14 15 43 0 29 19 -16 22 -27 2 -42 8 -41 15 2
7 -4 10 -12 7 -17 -7 -65 21 -65 36 0 6 18 10 40 10 33 0 40 3 40 19 0 17 -4
18 -30 11 -16 -5 -30 -6 -30 -2 0 4 -4 2 -8 -4 -4 -6 -28 -16 -53 -21 -45 -10
-46 -9 -43 14 1 12 2 23 1 23 -1 -1 -13 -8 -27 -16z m132 -68 c26 -13 45 -26
42 -28 -5 -5 -104 40 -104 47 0 9 16 5 62 -19z"/>
<path d="M2528 1673 c7 -3 16 -2 19 1 4 3 -2 6 -13 5 -11 0 -14 -3 -6 -6z"/>
<path d="M2671 1588 c11 -7 9 -9 -7 -5 -12 2 -21 -1 -21 -8 0 -10 8 -10 39 1
44 15 50 11 11 -9 l-27 -14 25 -9 c13 -4 26 -9 29 -9 3 -1 22 -9 44 -18 51
-22 58 -21 20 2 -35 21 -51 41 -34 41 6 0 13 -6 16 -14 3 -8 19 -18 35 -21 16
-4 29 -11 29 -17 0 -7 17 -8 48 -4 27 3 53 1 62 -5 11 -8 6 -9 -20 -5 l-35 5
33 -11 c17 -6 32 -15 32 -19 0 -12 -14 -11 -25 0 -6 6 -26 12 -45 15 l-35 5
33 -15 c18 -8 43 -15 55 -17 12 -1 24 -4 27 -7 3 -3 22 -11 43 -17 38 -11 39
-11 21 8 -16 18 -16 19 2 21 10 0 -1 4 -26 7 -34 5 -44 10 -42 22 1 11 -7 19
-23 23 -14 4 -25 11 -25 16 0 6 -6 10 -13 10 -8 0 -19 10 -25 23 -11 22 -11
22 -11 1 -1 -12 6 -25 15 -28 21 -8 8 -27 -14 -19 -40 13 -82 35 -82 42 0 11
-55 32 -94 36 -21 2 -25 0 -15 -7z m44 -38 c3 -6 -1 -7 -9 -4 -18 7 -21 14 -7
14 6 0 13 -4 16 -10z"/>
<path d="M2790 1585 c0 -13 4 -14 20 -5 11 6 20 13 20 15 0 3 -9 5 -20 5 -11
0 -20 -7 -20 -15z"/>
<path d="M2953 1588 c2 -7 10 -13 17 -13 7 0 15 6 18 13 2 7 -5 12 -18 12 -13
0 -20 -5 -17 -12z"/>
<path d="M5013 1588 c2 -7 10 -13 17 -13 7 0 15 6 18 13 2 7 -5 12 -18 12 -13
0 -20 -5 -17 -12z"/>
<path d="M5136 1579 c-17 -17 -18 -19 -3 -19 9 0 17 4 17 9 0 13 49 20 54 7 2
-6 5 -3 5 7 1 24 -48 22 -73 -4z"/>
<path d="M5256 1581 c-16 -8 -39 -24 -51 -37 -16 -17 -33 -24 -59 -24 -22 0
-35 4 -31 10 3 6 -1 10 -10 10 -9 0 -14 -4 -11 -9 4 -5 -7 -12 -24 -16 -21 -5
-30 -12 -28 -23 2 -13 -7 -18 -42 -23 -25 -3 -37 -7 -28 -7 11 -1 15 -7 11
-18 -4 -12 0 -14 23 -8 16 4 31 11 32 16 2 4 7 6 12 3 5 -3 21 0 37 6 15 7 37
14 47 16 38 7 30 15 -9 9 -22 -4 -44 -11 -49 -16 -12 -12 -26 -13 -26 -1 0 4
15 13 33 19 l32 11 -35 -5 c-25 -4 -31 -2 -20 5 8 5 43 8 79 7 43 -2 77 2 101
12 19 9 37 16 40 17 30 6 49 18 44 27 -5 7 1 9 15 5 13 -3 20 -3 17 0 -3 4 0
13 6 22 10 13 10 14 -2 4 -8 -7 -21 -13 -29 -13 -13 0 -13 2 -3 9 23 14 -40 7
-72 -8z m48 -12 c-11 -4 -13 -8 -5 -8 8 -1 12 -4 8 -7 -3 -3 -14 -1 -24 5 -11
6 -13 11 -5 11 7 0 11 4 8 9 -4 5 4 7 16 3 21 -5 21 -6 2 -13z m-59 -29 c-10
-11 -25 -20 -34 -19 -13 0 -14 2 -1 6 8 4 21 12 28 20 21 21 27 15 7 -7z"/>
<path d="M3017 1543 c-12 -11 -8 -23 8 -23 8 0 15 7 15 15 0 16 -12 20 -23 8z"/>
<path d="M4960 1536 c0 -9 7 -16 16 -16 17 0 14 22 -4 28 -7 2 -12 -3 -12 -12z"/>
<path d="M3064 1433 c15 -4 16 -7 5 -14 -9 -6 -4 -7 15 -3 19 5 27 3 23 -3 -4
-7 8 -14 29 -17 19 -4 43 -10 52 -13 15 -4 15 -3 2 6 -12 8 -4 11 32 11 43 0
81 19 41 21 -17 0 -17 1 1 8 11 4 -18 7 -65 7 -46 1 -73 -2 -59 -6 21 -5 22
-7 8 -13 -10 -3 -30 0 -45 8 -15 8 -35 14 -43 14 -9 -1 -8 -3 4 -6z m175 -17
c-2 -2 -26 -6 -54 -10 -34 -4 -43 -3 -30 3 19 9 93 15 84 7z"/>
<path d="M4080 1425 c0 -11 11 -15 40 -15 22 0 40 -4 40 -9 0 -5 34 -8 75 -8
41 1 75 5 75 10 0 7 -58 11 -113 7 -17 -1 -29 4 -33 14 -8 22 -84 23 -84 1z"/>
<path d="M4720 1426 c0 -7 24 -11 63 -11 36 0 64 4 64 10 0 6 -29 10 -64 11
-39 0 -63 -4 -63 -10z"/>
<path d="M4895 1424 c-40 -21 -42 -24 -16 -24 14 0 20 4 15 11 -5 9 1 10 22 5
19 -4 24 -3 15 3 -11 7 -10 10 5 14 12 3 13 5 4 6 -8 0 -28 -6 -45 -15z"/>
<path d="M3439 1400 c29 -24 86 -24 86 0 0 11 -14 16 -55 18 l-55 2 24 -20z"/>
<path d="M3730 1409 c-65 -7 -59 -10 32 -14 38 -2 70 0 73 5 7 11 -42 16 -105
9z"/>
<path d="M4477 1400 c7 -26 53 -27 84 0 l24 19 -57 1 c-51 0 -56 -2 -51 -20z"/>
<path d="M4768 1403 c12 -2 30 -2 40 0 9 3 -1 5 -23 4 -22 0 -30 -2 -17 -4z"/>
<path d="M3228 1378 c17 -8 26 -8 34 0 9 9 4 12 -22 11 -33 0 -34 -1 -12 -11z"/>
<path d="M4730 1380 c12 -8 12 -10 1 -10 -8 0 -12 -2 -9 -5 3 -3 20 1 39 9
l34 15 -40 0 c-29 1 -36 -2 -25 -9z"/>
<path d="M3355 1350 c-7 -11 9 -11 45 0 24 8 24 8 -7 9 -17 1 -35 -3 -38 -9z"/>
<path d="M3420 1344 c-18 -10 -20 -14 -8 -14 9 0 20 5 23 10 3 6 11 10 16 10
6 0 8 -4 5 -8 -2 -4 11 -6 30 -4 42 5 41 8 -6 14 -19 3 -46 -1 -60 -8z"/>
<path d="M3585 1350 l-20 -9 20 0 c17 -1 18 -3 5 -11 -11 -8 -7 -9 15 -4 39 9
44 14 14 16 -13 0 -4 4 21 8 l45 7 -40 1 c-22 0 -49 -3 -60 -8z"/>
<path d="M3730 1346 l25 -16 -32 6 c-17 3 -39 1 -50 -5 -14 -8 -15 -11 -3 -11
10 -1 9 -4 -5 -11 -16 -7 -14 -8 10 -4 17 3 82 7 145 10 123 6 157 14 69 16
l-54 2 40 7 c31 6 22 8 -40 6 -44 0 -91 3 -105 7 l-25 8 25 -15z m-17 -23 c-7
-2 -19 -2 -25 0 -7 3 -2 5 12 5 14 0 19 -2 13 -5z"/>
<path d="M3978 1353 c6 -2 18 -2 25 0 6 3 1 5 -13 5 -14 0 -19 -2 -12 -5z"/>
<path d="M4360 1350 c28 -4 36 -8 20 -9 -20 -2 -16 -5 20 -16 26 -9 47 -10 50
-5 3 5 24 14 45 20 37 9 38 9 5 5 -19 -3 -48 -7 -65 -11 -20 -4 -26 -2 -17 4
17 12 -18 22 -68 20 -33 -1 -32 -1 10 -8z"/>
<path d="M4448 1353 c7 -3 16 -2 19 1 4 3 -2 6 -13 5 -11 0 -14 -3 -6 -6z"/>
<path d="M4556 1349 c2 -4 -2 -9 -8 -12 -7 -2 3 -4 22 -4 29 -1 31 1 15 8 -14
7 -7 8 23 4 29 -4 41 -2 37 5 -4 6 -26 10 -50 9 -24 -2 -42 -6 -39 -10z"/>
<path d="M4140 1340 c19 -6 13 -8 -29 -9 -94 -2 -50 -10 79 -15 85 -4 119 -2
105 4 -15 8 -11 9 20 5 34 -4 36 -3 16 6 -14 5 -38 7 -54 3 -16 -3 -27 -2 -24
2 3 5 -27 10 -66 10 -48 1 -64 -1 -47 -6z"/>
<path d="M3530 1335 c0 -10 29 -24 34 -17 3 6 -3 12 -14 15 -11 3 -20 4 -20 2z"/>
<path d="M3478 1323 c6 -2 18 -2 25 0 6 3 1 5 -13 5 -14 0 -19 -2 -12 -5z"/>
<path d="M4498 1323 c6 -2 18 -2 25 0 6 3 1 5 -13 5 -14 0 -19 -2 -12 -5z"/>
<path d="M3855 1300 c3 -5 21 -10 38 -9 31 1 31 1 7 9 -36 11 -52 11 -45 0z"/>
<path d="M3967 1304 c-16 -16 -5 -24 34 -24 28 0 39 4 37 13 -5 13 -60 22 -71
11z"/>
<path d="M4105 1300 c-18 -4 8 -7 64 -8 52 -1 92 0 90 2 -9 7 -126 12 -154 6z"/>
<path d="M4328 1303 c7 -3 16 -2 19 1 4 3 -2 6 -13 5 -11 0 -14 -3 -6 -6z"/>
<path d="M3763 1293 c15 -2 39 -2 55 0 15 2 2 4 -28 4 -30 0 -43 -2 -27 -4z"/>
</g>
</svg>
